<?xml version="1.0" standalone="no"?>
<!DOCTYPE svg PUBLIC "-//W3C//DTD SVG 1.1//EN" "http://www.w3.org/Graphics/SVG/1.1/DTD/svg11.dtd" >
<svg xmlns="http://www.w3.org/2000/svg">
<metadata>
This is a custom SVG webfont generated by Font Squirrel.
</metadata>
<defs>
<font id="JollyMedium" horiz-adv-x="1288" >
<font-face units-per-em="2048" ascent="1536" descent="-512" />
<missing-glyph horiz-adv-x="579" />
<glyph unicode=" "  horiz-adv-x="579" />
<glyph unicode="&#x09;" horiz-adv-x="579" />
<glyph unicode="&#xa0;" horiz-adv-x="579" />
<glyph unicode="!" horiz-adv-x="452" d="M70 0l2 213h194l-12 -211zM80 395v74q0 47 1 106.5t2 127t1 135.5q2 158 4 338h231q-12 -182 -20 -340q-4 -68 -7 -135.5t-6 -127t-5 -105.5t-2 -71q-57 -2 -101 -2q-37 0 -67.5 -1t-30.5 1z" />
<glyph unicode="&#x22;" horiz-adv-x="778" d="M-8 985l45 45q16 20 33.5 46t21.5 54q8 51 -2 92.5t-27 69.5q-20 35 -47 60l199 141q0 -2 21.5 -28.5t43 -74t34 -115t-2.5 -149.5q-14 -74 -49 -129t-74 -92q-45 -43 -98 -74zM324 985l45 45q16 20 33.5 46t21.5 54q8 51 -2 92.5t-27 69.5q-20 35 -47 60l199 141 q0 -2 21.5 -28.5t43 -74t33.5 -115t-2 -149.5q-14 -74 -49 -129t-74 -92q-45 -43 -98 -74z" />
<glyph unicode="#" horiz-adv-x="1265" d="M55 279l2 198h176l50 281l-168 -4l2 198h200l48 269h235l-51 -271l260 2l47 269h236l-52 -271l144 2l-13 -196h-165l-54 -281l172 2l-12 -196h-194l-52 -279l-225 -2l51 285l-268 -4l-49 -279l-225 -2l49 283zM461 475l264 2l51 283l-264 -4z" />
<glyph unicode="$" horiz-adv-x="1052" d="M-25 76q0 -2 11.5 31.5t25.5 74.5q16 47 37 109q43 -20 92 -39q41 -16 91.5 -31.5t103.5 -25.5l39 313q-2 2 -4 3t-4 3q-74 45 -135.5 90t-102.5 95.5t-59.5 109.5t-6.5 131q14 80 54.5 128t94.5 74.5t119.5 37t133.5 10.5l16 141h197l-25 -155q51 -10 92 -20.5t70 -20.5 q35 -10 59 -23l-75 -201l-54 21q-25 10 -54 18t-62 19l-43 -318q96 -61 159.5 -109t98.5 -94.5t44 -98.5t-1 -122q-23 -133 -119 -192.5t-276 -63.5l-11 -94l-186 -2l14 111q-70 10 -129 25.5t-106 29.5q-54 17 -99 35zM324 913q-12 -41 13 -77.5t73 -71.5l26 223 q-41 -6 -71.5 -24.5t-40.5 -49.5zM524 193q41 8 66.5 28.5t34.5 59.5q6 35 -15.5 63.5t-58.5 56.5z" />
<glyph unicode="&#x26;" horiz-adv-x="1417" d="M-4.5 357.5q20.5 78.5 64.5 145t100.5 119t97.5 83.5q-10 16 -23.5 45.5t-25.5 63.5t-20.5 69t-8.5 61q0 47 16.5 91t48 78t77 54.5t102.5 22.5q51 2 96 -11.5t79 -39t54.5 -63.5t22.5 -87q2 -57 -11.5 -102t-40 -84t-63.5 -75t-82 -75q41 -70 80 -131t94 -123 q14 41 9 82t-15 74q-23 12 -39 26.5t-26 24.5q-12 12 -23 25l123 135q20 -27 45 -45q20 -16 48 -28.5t56 -8.5q37 4 62 19.5t48.5 36t51 42t70.5 37.5q51 18 107.5 7t105.5 -33q55 -25 113 -62l-134 -166q-20 18 -43 31q-20 10 -47.5 18.5t-60.5 3.5q-33 -4 -60.5 -25.5 t-61.5 -44t-76 -38.5t-103 -10q8 -31 9 -64t-2 -64.5t-10 -59t-14 -46.5q66 -59 123.5 -73.5t91.5 -12.5q45 2 80 24.5t58 49.5q27 31 47 68l162 -86l-8 -22q-7 -22 -23.5 -53.5t-45 -67.5t-69.5 -65.5t-98 -46t-133 -10.5q-51 4 -90 15.5t-71 29t-61.5 40t-62.5 48.5 q-57 -55 -122.5 -91t-174.5 -42q-135 -8 -236.5 45.5t-146.5 176.5q-31 86 -10.5 164.5zM212 347q-5 -40 11 -83q12 -31 34 -53.5t49.5 -34.5t57 -16t58.5 0q33 4 59.5 16t44 24.5t26.5 22.5l9 10q-74 82 -127 154t-100 164q-31 -27 -57.5 -58.5t-43 -68.5t-21.5 -77z M356 926q2 -27 12.5 -62t20.5 -59q37 31 58.5 69.5t21.5 67.5q-2 37 -18.5 53.5t-38.5 16.5q-23 0 -41.5 -23.5t-14.5 -62.5z" />
<glyph unicode="'" horiz-adv-x="317" d="M-18 985l45 45q16 20 33.5 46t21.5 54q8 51 -2 92.5t-27 69.5q-20 35 -47 60l199 141q0 -2 21.5 -28.5t43 -74t33.5 -115t-2 -149.5q-14 -74 -49 -129t-74 -92q-45 -43 -98 -74z" />
<glyph unicode="(" horiz-adv-x="501" d="M47 559q0 174 29.5 320.5t69.5 255t81 178t62 90.5l164 -84q-51 -98 -91 -217q-35 -102 -61.5 -237.5t-24.5 -293.5q2 -154 25 -280.5t51 -220.5q33 -111 74 -201l-201 -86q-51 90 -90 207q-35 100 -61.5 243.5t-26.5 325.5z" />
<glyph unicode=")" horiz-adv-x="491" d="M2 -131q51 98 90 217q35 102 61.5 237.5t24.5 292.5q-2 152 -24.5 280t-51.5 222q-33 111 -73 201l200 86q49 -90 88 -207q35 -100 63 -243.5t28 -325.5q0 -174 -30 -320.5t-70 -255t-81 -178.5t-61 -90z" />
<glyph unicode="*" horiz-adv-x="897" d="M125 1049l143 18l-110 80l131 131l90 -127l35 141l180 -59l-74 -129l154 45l31 -180l-154 -11l121 -106l-142 -117l-88 139l-39 -161l-174 65l74 137l-145 -49z" />
<glyph unicode="+" horiz-adv-x="907" d="M51 469l2 199l260 -2l-2 258l199 -2l-10 -256l264 2l-12 -199l-252 4l2 -264l-197 12l4 252z" />
<glyph unicode="," horiz-adv-x="378" d="M-39 -193q16 20 29 50q10 25 18 60.5t10 82.5l2 213h232q0 -43 -2 -82l-4 -70q-2 -35 -6 -59q-14 -92 -52 -166t-102 -119q-4 -2 -23.5 12.5t-42.5 30.5q-26 20 -59 47z" />
<glyph unicode="-" horiz-adv-x="743" d="M41 393l2 211l571 4l-12 -213z" />
<glyph unicode="." horiz-adv-x="358" d="M33 0l2 213h229l-12 -211z" />
<glyph unicode="/" horiz-adv-x="581" d="M49 0l215 1221h236l-226 -1219z" />
<glyph unicode="0" horiz-adv-x="1044" d="M53 586q4 131 37 239.5t87 189.5t128 129t164 60q115 14 199 -28.5t139 -124.5t80.5 -196t23.5 -239q-4 -152 -35.5 -270.5t-90 -202.5t-142.5 -128t-192 -44q-195 0 -301.5 155t-96.5 460zM301 584q-6 -190 37 -303t121 -113q39 0 74.5 31.5t63.5 90t43 141.5t15 185 q0 70 -9 139.5t-28.5 123t-52.5 87t-78 33.5q-37 0 -69.5 -30.5t-57 -85t-41 -131t-18.5 -168.5z" />
<glyph unicode="1" horiz-adv-x="753" d="M33 1034l563 187l-16 -1221h-246l22 946l-270 -112z" />
<glyph unicode="2" horiz-adv-x="1052" d="M76 1137q33 14 78 26q39 10 96 18.5t133 8.5q98 0 169 -21.5t118 -58.5t73.5 -87t36.5 -108q20 -115 -20.5 -223t-109 -202.5t-147.5 -170t-132 -122.5l450 22l-6 -219h-717v199q12 6 53.5 41.5t95.5 89t110.5 120t100.5 136t65.5 137.5t4.5 123q-12 37 -32.5 60.5 t-45 36.5t-50 17.5t-46.5 4.5q-55 0 -100 -10.5t-78 -22.5q-37 -14 -67 -33z" />
<glyph unicode="3" horiz-adv-x="1062" d="M-4 55l70 221q45 -20 98 -38q45 -16 104.5 -28.5t126.5 -16.5q100 -6 168 36.5t82 128.5q12 76 -17.5 136.5t-95.5 83.5q-37 12 -76.5 15t-76.5 -2t-67.5 -15.5t-49.5 -24.5l-117 143l365 277l-383 -15v220h711v-172q-80 -72 -148 -130q-29 -25 -56.5 -49t-50 -43.5 t-39 -34t-20.5 -18.5q29 2 62 -2q29 -4 61.5 -10t67.5 -23q111 -53 154.5 -140t31.5 -220q-8 -86 -46 -157t-104.5 -119t-158.5 -70.5t-209 -16.5q-92 6 -164 19.5t-121 28t-75 25.5z" />
<glyph unicode="4" horiz-adv-x="1130" d="M51 270v191l436 801l211 -117l-403 -682l213 6l2 203h229l-12 -187l244 17l8 -232l-256 4l4 -272l-219 -2v276z" />
<glyph unicode="5" horiz-adv-x="1073" d="M-4 55l70 219q51 -23 104 -41q47 -16 105.5 -28t119.5 -12q104 0 172 37.5t78 127.5q8 63 -12.5 107.5t-59 70t-93 35t-111.5 4.5q-41 -4 -83 -13t-77 -19q-39 -12 -78 -27l43 660h653v-226l-479 -2q0 -2 -2 -33.5t-6 -70.5q-4 -45 -6 -103q25 12 57 21q29 6 66 9t82 -1 q86 -10 156.5 -48t118.5 -96.5t70.5 -133t14.5 -158.5q-18 -186 -152.5 -279.5t-365.5 -83.5q-80 2 -150.5 15.5t-123 29t-81.5 27.5z" />
<glyph unicode="6" horiz-adv-x="980" d="M94 225q-31 119 5 249t118 255t202 239.5t259 207.5l145 -191q-76 -49 -145 -102q-59 -47 -121.5 -102.5t-103.5 -114.5q27 4 66.5 5t68.5 -3q63 -8 118.5 -33t97.5 -67t65.5 -98t23.5 -128q0 -80 -22.5 -147.5t-70.5 -116.5t-122 -78t-176 -29q-178 -6 -278.5 65.5 t-129.5 188.5zM344 315q12 -53 54 -86.5t106 -33.5q68 0 116 35.5t56 107.5q8 74 -34 120t-116 66q-29 8 -55.5 10.5t-46.5 2.5q-25 0 -45 -5q-62 -115 -35 -217z" />
<glyph unicode="7" horiz-adv-x="892" d="M41 946v230h770v-172l-352 -1004h-281l377 969z" />
<glyph unicode="8" horiz-adv-x="1202" d="M115 330q4 72 43 131t86 100q53 49 123 88l-27 18q-27 17 -58.5 52t-58 83t-26.5 109q0 80 34.5 136.5t91 91.5t130 50t151.5 15t141.5 -23.5t108.5 -62.5t67.5 -91t20.5 -109q-4 -74 -34.5 -128.5t-66.5 -90t-64 -54.5l-27 -18q0 -2 37.5 -20.5t84 -55.5t84 -92.5 t37.5 -130.5q0 -109 -45 -177.5t-112.5 -108.5t-146.5 -55.5t-144 -15.5q-96 0 -176 21.5t-138.5 66.5t-89 113t-26.5 158zM389 352q-4 -25 1 -55.5t24.5 -57t52.5 -45t84 -18.5q39 0 75 12.5t60.5 35t37.5 53t11 65.5q-4 51 -29.5 86t-54 57.5t-52.5 32.5l-24 10 q-14 -6 -41.5 -18t-57.5 -33.5t-54.5 -52.5t-32.5 -72zM436 905q-2 -29 15.5 -58.5t38 -54t37.5 -38.5l18 -15q45 20 90 60.5t57 101.5q2 16 -3 35.5t-18.5 37t-38 29t-57.5 11.5q-66 0 -100.5 -31t-38.5 -78z" />
<glyph unicode="9" horiz-adv-x="1040" d="M43 829q0 80 24.5 147.5t73.5 119t124 80t177 28.5q63 0 128 -14t121.5 -47t97 -88.5t57.5 -134.5q29 -143 -5 -273.5t-114 -246t-197.5 -219t-257.5 -195.5l-149 198q10 6 55 34t105.5 71t125 98t113.5 117q-18 -6 -41 -12q-20 -4 -45.5 -8.5t-58.5 -0.5 q-80 6 -142.5 34t-104.5 74t-64.5 106t-22.5 132zM281 834q-2 -37 7 -74t30.5 -66.5t56.5 -48t84 -18.5q29 0 52.5 5t41.5 11q23 8 41 19q6 14 12 37.5t8 51t1 56.5t-7 53q-12 53 -59 94t-111 41q-68 0 -110.5 -45.5t-46.5 -115.5z" />
<glyph unicode=":" horiz-adv-x="444" d="M49 0l2 213h230l-13 -211zM49 592l2 213h230l-13 -211z" />
<glyph unicode=";" horiz-adv-x="475" d="M49 -193q16 20 29 50q10 25 18 60.5t10 82.5l3 213h231q0 -43 -2 -82l-4 -70q-2 -35 -6 -59q-14 -92 -52 -166t-102 -119q-4 -2 -23.5 12.5t-41.5 30.5q-27 20 -60 47zM106 592l3 213h229l-12 -211z" />
<glyph unicode="&#x3c;" horiz-adv-x="702" d="M-6 401l371 412l141 -127l-287 -276l311 -304l-151 -126z" />
<glyph unicode="=" horiz-adv-x="1112" d="M152 297l2 199h790l-12 -197zM152 690l2 199h790l-12 -197z" />
<glyph unicode="&#x3e;" horiz-adv-x="817" d="M74 106l313 304l-289 276l142 127l378 -412l-393 -421z" />
<glyph unicode="?" horiz-adv-x="915" d="M18 1139q33 16 80 30q39 12 96.5 21.5t133.5 13.5q178 6 292.5 -45t155.5 -170q37 -104 20.5 -188t-64.5 -150.5t-117.5 -116t-142.5 -85t-137.5 -60t-101.5 -41.5q-2 -2 -11 23.5t-21 56.5q-14 37 -33 80q47 20 122 51t139.5 76t103 108.5t14.5 149.5 q-23 78 -86.5 103.5t-145.5 21.5q-57 -4 -101 -13.5t-73 -19.5q-37 -12 -61 -24zM236 0l2 213h194l-12 -211z" />
<glyph unicode="@" horiz-adv-x="1558" d="M-18 561q0 129 51 249t148.5 212t237.5 147.5t318 55.5q381 0 580 -198t207 -552q2 -100 -22.5 -191t-78 -161t-133.5 -111t-188 -41q-59 0 -125 29t-117 113q-35 -53 -92 -97.5t-135 -44.5q-53 0 -94 21.5t-70 58.5t-43 85t-14 100q0 68 22.5 116.5t63.5 79.5t96 46.5 t121 15.5q45 0 88 -4.5t71 -8.5q2 18 3 33v23q0 63 -36 83.5t-96 20.5q-37 0 -84 -6t-88 -12q-49 -8 -100 -17l-2 203l82 10q37 4 84 7t94 3q123 0 195.5 -23.5t109.5 -66.5t44 -105.5t1 -139.5q-4 -37 -8 -76t-9 -75t-8 -65.5t-3 -48.5q0 -35 20.5 -55t48.5 -20 q45 0 78 28.5t53.5 78.5t29.5 117.5t7 145.5q-4 98 -36.5 194.5t-98 171.5t-164 121t-229.5 44q-127 -2 -228.5 -45t-173 -114t-111.5 -161t-44 -188zM604 250q0 -43 30 -68.5t64 -25.5q47 0 87 31.5t67 66.5q2 8 4 22.5t3 31t3 32.5t2 27q-10 2 -37.5 4t-52.5 2 q-72 0 -122 -32t-48 -91z" />
<glyph unicode="A" d="M41 0q115 295 226.5 588t226.5 588h251q125 -295 248 -588t248 -588h-272q-33 88 -60 156q-23 59 -42 107t-19 50q-29 -2 -98.5 -4t-145.5 -4t-135 -4t-66 -2q-31 -78 -58.5 -149.5l-57.5 -149.5h-246zM477 502l307 16q-41 104 -79.5 210t-75.5 210q-29 -96 -72 -214 t-80 -222z" />
<glyph unicode="B" horiz-adv-x="1202" d="M92 0l14 1176h512q197 0 302 -86q99 -81 98 -243v-20q-2 -43 -12.5 -81.5t-25.5 -69.5t-33.5 -53.5t-33.5 -30.5q86 -35 133 -104q42 -63 42 -156q0 -8 -1 -17q-4 -90 -41.5 -150.5t-98 -97t-137.5 -52t-159 -15.5h-559zM334 514l4 -328q41 0 88 -1t93 -2t87 -2t72 -1 q45 0 76.5 14.5t51 37t30 50t10.5 56.5q0 31 -11.5 62.5t-36 56t-61.5 40t-86 15.5q-86 0 -174 1t-143 1zM342 696h272q74 0 121 33t53 107q0 6 1 11q0 21 -6 42q-7 27 -26.5 47t-53 34.5t-82.5 16.5q-63 4 -136 6t-137 2z" />
<glyph unicode="C" horiz-adv-x="1062" d="M33 580q6 170 53 286.5t121 187t166 102.5t188 34q82 0 151.5 -18.5t122 -42t81 -44t26.5 -22.5l-133 -172q-29 23 -64 43q-31 16 -71.5 30.5t-87.5 18.5q-9 1 -19 1q-51 0 -100 -19q-57 -23 -102.5 -71t-72 -124t-28.5 -178v-19q0 -98 20 -170q22 -78 62.5 -126 t97.5 -68q44 -16 97 -16q16 0 32 2q49 4 97.5 18t85.5 29.5t59.5 28t24.5 12.5l114 -187q-43 -37 -104 -63q-53 -23 -133 -42.5t-189 -19.5q-115 0 -209 35t-159.5 109.5t-99.5 189.5q-29 97 -28 226q0 24 1 49z" />
<glyph unicode="D" d="M92 0l17 1176h423q129 0 248 -39t206 -116t133 -195q35 -90 35 -201q0 -35 -3 -72q-14 -158 -68.5 -263.5t-138.5 -170t-193.5 -92t-234.5 -27.5h-424zM334 193q8 0 34 -2q13 -1 27.5 -0.5t31.5 0.5q34 1 75 3.5t80 8.5q178 27 253.5 119t86.5 239q2 22 1 44 q0 72 -21 131q-28 77 -80 131.5t-123.5 83t-153.5 30.5q-59 2 -99 2h-94z" />
<glyph unicode="E" horiz-adv-x="1114" d="M92 0l17 1176h892l-4 -222l-665 19l4 -266l495 4l-4 -215l-510 8l7 -285l645 4l-6 -223h-871z" />
<glyph unicode="F" horiz-adv-x="1116" d="M92 0l17 1176h895l-7 -232l-667 21l6 -281l498 4l-5 -223h-497l12 -465h-252z" />
<glyph unicode="G" horiz-adv-x="1202" d="M31 580q0 168 46 286.5t121.5 194.5t169 109.5t189.5 33.5q98 0 179 -23.5t141 -52.5q68 -33 124 -73l-145 -174q-41 35 -86 61q-41 23 -91 42.5t-104 19.5q-59 0 -114 -24t-100.5 -73t-72 -127t-26.5 -188q0 -111 22.5 -188.5t62.5 -127t93.5 -73t116.5 -23.5 q55 0 106.5 17.5t90.5 52.5t62.5 87t27.5 122l-250 -23l2 205l481 2q0 -14 1 -28q0 -317 -134 -477q-139 -167 -393 -167q-117 0 -213 35t-164 108.5t-105.5 189.5t-37.5 276z" />
<glyph unicode="H" horiz-adv-x="1323" d="M92 0l17 1176h245l-22 -486l581 2l7 484h245l-28 -1176h-234l6 487l-583 -2l2 -485h-236z" />
<glyph unicode="I" horiz-adv-x="503" d="M92 0l12 805l11 371h231l-20 -371l-9 -805h-225z" />
<glyph unicode="J" horiz-adv-x="847" d="M-63 37l73 221q53 -20 105 -37q43 -14 91 -25.5t87 -11.5q66 0 106.5 42t42.5 114q0 18 1 63.5t2 107.5t2.5 136t3.5 148q2 172 6 381h243q-6 -176 -10 -334q-2 -68 -4 -138.5t-4 -136t-3 -121t-1 -94.5q-4 -199 -88 -290t-258 -91q-78 0 -150.5 10.5t-126.5 22.5 q-65 15 -118 33z" />
<glyph unicode="K" horiz-adv-x="1060" d="M92 0l17 1176h249l-12 -465l412 465h291l-521 -541l504 -635h-301l-389 522l-12 -522h-238z" />
<glyph unicode="L" horiz-adv-x="1040" d="M92 0l17 1176h256l-31 -967l604 27l-6 -236h-840z" />
<glyph unicode="M" horiz-adv-x="1306" d="M-20 0l219 1176h223l131 -582l51 -223l62 223l155 582h217l176 -1176h-237l-62 768l-69 -256l-154 -512h-207l-108 512l-47 256l-97 -768h-253z" />
<glyph unicode="N" horiz-adv-x="1241" d="M92 0l21 1176h247l410 -691l84 -178l-16 869h245l-32 -1176h-236l-444 743l-56 103l21 -846h-244z" />
<glyph unicode="O" horiz-adv-x="1175" d="M31 588q0 147 43 263t113.5 193.5t158.5 118.5t180 41q260 0 388 -157.5t128 -428.5q0 -156 -37.5 -275.5t-107.5 -202.5t-168 -126t-217 -43q-106 0 -194.5 31t-152 102.5t-99 189.5t-35.5 294zM260 586q0 -193 69.5 -302.5t190.5 -109.5q63 0 113.5 32t86.5 89 t55.5 139t19.5 184q0 174 -69 277.5t-194 103.5q-49 0 -97 -25.5t-87 -76.5t-63.5 -129t-24.5 -182z" />
<glyph unicode="P" horiz-adv-x="1101" d="M92 0l14 1176h486q94 0 172 -26t135 -74t89 -117.5t32 -159.5q0 -86 -29.5 -159t-85 -124t-135.5 -79.5t-180 -28.5h-252l4 -408h-250zM340 989l2 -389h248q102 0 146 53.5t44 145.5q0 88 -52 139t-138 51h-250z" />
<glyph unicode="Q" horiz-adv-x="1173" d="M31 600q0 147 43 260t113.5 189.5t158.5 115.5t180 39q131 0 228.5 -40t162 -113.5t96 -180t31.5 -239.5q0 -266 -103 -430t-288 -213q10 -29 25.5 -57.5t40 -52t59.5 -39t86 -17.5q9 -1 18 -1q53 0 98 22q52 26 89 61q43 37 76 90l196 -170q-53 -66 -120 -117 q-59 -43 -146 -76q-66 -25 -148 -25q-26 0 -53 3q-104 8 -180 49t-126 95t-78.5 114.5t-38.5 107.5q-94 8 -171 46t-132.5 113t-86 189.5t-30.5 276.5zM260 598q0 -94 18.5 -172t52.5 -134t82 -88t107 -32q63 0 114.5 34t87.5 95t55.5 145t19.5 185q0 172 -69 271t-196 99 q-49 0 -97 -24.5t-87 -73.5t-63.5 -125t-24.5 -180z" />
<glyph unicode="R" horiz-adv-x="1193" d="M92 0l17 1176h473q106 0 182 -29t125 -78t71.5 -113.5t22.5 -134.5q0 -53 -17.5 -105t-52 -95t-86 -75t-120.5 -44q16 -29 39.5 -75t48.5 -93q23 -45 45 -73t43.5 -44t42 -24.5t41.5 -10.5q29 -4 55.5 -2t48.5 6q25 4 51 11l43 -187q-27 -12 -57 -20q-27 -8 -60.5 -13.5 t-74.5 -5.5q-66 0 -119 15.5t-98 49.5t-83 85t-75 123q-29 59 -62.5 128.5t-50.5 114.5h-145l-2 -487h-246zM344 680h248q72 0 114 38t42 111q0 72 -43 117t-121 45h-230z" />
<glyph unicode="S" horiz-adv-x="974" d="M-25 76q0 -2 11.5 32.5t25.5 75.5q16 49 37 109q63 -31 131 -53q57 -20 123 -37t125 -17q39 0 77 6.5t66.5 20.5t46 40t17.5 64q0 25 -23.5 49.5t-61.5 51t-86 54.5t-97 58q-74 45 -140.5 88.5t-116 90.5t-72.5 104q-15 38 -16 82q0 23 5 47q14 80 54 131t95 80t122 40 t134 11q96 0 170 -12t127 -27q61 -18 109 -39l-76 -200q-41 18 -84 35q-37 14 -82 27t-86 20q-33 4 -71 4t-70.5 -8.5t-57 -25.5t-30.5 -48q-3 -13 -3 -26q0 -22 9 -40q14 -29 48 -56.5t86 -59t120 -70.5q88 -51 150.5 -96t103.5 -90.5t60 -95.5t19 -111q0 -68 -27.5 -125.5 t-79.5 -99.5t-128 -65.5t-172 -23.5q-92 0 -179 15.5t-157 36.5q-82 22 -156 53z" />
<glyph unicode="T" horiz-adv-x="1126" d="M51 961v215h1024l-8 -224l-401 17l-15 -969h-241l20 973z" />
<glyph unicode="U" horiz-adv-x="1267" d="M82 573v596l250 7v-623q0 -68 15 -134.5t48 -118.5t84 -85t123 -33q139 0 204.5 93.5t65.5 277.5v82q0 45 -1 96t-1 104v101q-2 115 -2 235l252 5v-609q0 -139 -27.5 -249.5t-91 -187.5t-168 -118t-255.5 -41q-258 0 -377 154.5t-119 447.5z" />
<glyph unicode="V" horiz-adv-x="1001" d="M-41 1174l256 2l195 -814l266 812l244 2l-404 -1176h-225z" />
<glyph unicode="W" horiz-adv-x="1550" d="M-41 1174l246 2l172 -814l246 812l204 2l220 -814l176 812l245 2l-280 -1176h-258l-213 805l-228 -805h-225z" />
<glyph unicode="X" horiz-adv-x="1251" d="M49 0l473 604l-428 572h295l260 -414l279 414h274l-409 -568l426 -608h-312l-256 440l-299 -440h-303z" />
<glyph unicode="Y" horiz-adv-x="1032" d="M-49 1176h282l195 -445l47 -125l51 125l205 445h266l-413 -752l6 -424h-254l10 428z" />
<glyph unicode="Z" horiz-adv-x="1146" d="M45 0v174l666 803l-631 -27v226h942v-172l-662 -791l682 25l-10 -238h-987z" />
<glyph unicode="[" horiz-adv-x="555" d="M96 -193l10 1579h386v-200l-187 -2l6 -1180l170 2v-199h-385z" />
<glyph unicode="\" horiz-adv-x="616" d="M49 1221l225 -2l226 -1219h-236z" />
<glyph unicode="]" horiz-adv-x="598" d="M41 -193l6 199l168 -2l18 1182l-176 -2l-6 200h398l-11 -1577h-397z" />
<glyph unicode="^" horiz-adv-x="1056" d="M88 934l422 385l412 -371l-127 -141l-277 287l-303 -312z" />
<glyph unicode="_" horiz-adv-x="950" d="M49 -199l2 199h973l-12 -197z" />
<glyph unicode="`" horiz-adv-x="686" d="M104 1133l99 157l336 -227l-99 -131z" />
<glyph unicode="a" horiz-adv-x="925" d="M47 236q0 68 22.5 114.5t63.5 77.5t96.5 44t120.5 13q51 0 91 -3t69 -7q2 18 2 36v26q0 63 -36 83.5t-95 20.5q-37 0 -84 -6t-88 -12q-49 -8 -100 -17l-3 203l82 10q37 4 84 7t95 3q123 0 195.5 -23.5t109.5 -66.5t44 -105q4 -34 4 -72q0 -33 -3 -68q-4 -37 -8 -79 t-9.5 -82t-8.5 -73t-3 -51q0 -10 5 -20.5t20 -12.5q10 -2 26.5 4t30.5 17q16 8 35 22l100 -137q-20 -35 -53 -59q-29 -23 -75 -39q-37 -13 -87 -13h-26q-68 4 -109 42t-59 100q-35 -53 -92.5 -97.5t-135.5 -44.5q-53 0 -94 21.5t-69.5 58.5t-43 85.5t-14.5 99.5z M276.5 179.5q26.5 -25.5 61.5 -25.5q47 0 85 32.5t64 67.5q4 16 8 50l5 56q-10 2 -29.5 3.5t-60.5 1.5q-72 0 -117 -29q-43 -27 -43 -83q0 -48 26.5 -73.5z" />
<glyph unicode="b" horiz-adv-x="1030" d="M92 25l33 1196l213 4l-10 -568q20 31 47.5 62t62.5 55.5t76 39.5t90 15q80 0 139.5 -35.5t96.5 -94t52 -133.5q11 -53 11 -108q0 -22 -2 -44q-10 -106 -48 -190.5t-99.5 -140.5t-143.5 -86q-72 -26 -156 -26h-24q-82 2 -144.5 10.5t-105.5 18.5q-51 11 -88 25zM317 164 q16 -6 39 -10q16 -4 40 -7q12 -1 24 -1t24 1q55 4 99.5 30t73 64t45 86t16.5 97v12q0 72 -23 122q-25 54 -84 60q-10 1 -20 1q-32 0 -59 -10q-37 -13 -68 -37.5t-56.5 -54.5t-43.5 -58z" />
<glyph unicode="c" horiz-adv-x="847" d="M59 393q2 131 37 215t89.5 133.5t122 68.5t134.5 19q74 0 127.5 -10t88 -23.5t56 -25.5t31.5 -14l-77 -178q-37 23 -74 40q-33 16 -70 27q-26 7 -51 7q-10 0 -20 -1q-82 -10 -128 -76.5t-49 -201.5q0 -57 13.5 -96t38 -63t59.5 -34t76 -10q35 0 70.5 6t68.5 17 q37 10 74 24l57 -180q-39 -18 -90 -33q-43 -12 -102.5 -22.5t-130.5 -10.5q-59 0 -122 16.5t-115 62.5t-85 129q-29 74 -29 186v28z" />
<glyph unicode="d" horiz-adv-x="1001" d="M61 420q8 117 46 195.5t91.5 125.5t117 67.5t122.5 20.5q43 0 78 -12t59 -29q29 -18 54 -40l10 473l205 4l-23 -1225h-213l4 96q-49 -53 -107.5 -89t-148.5 -36q-63 0 -120.5 31t-99.5 88t-62 141q-15 60 -15 131q0 28 2 58zM268 422q-2 -26 -2 -49q0 -46 8 -81 q12 -52 38 -84t61 -45q27 -10 55 -10q9 0 18 1q41 4 71 19t52 36q25 23 45 51l9 318q-27 27 -55.5 49t-82.5 24h-6q-76 0 -137 -51q-64 -53 -74 -178z" />
<glyph unicode="e" horiz-adv-x="890" d="M59 408q4 111 34 190.5t80 130.5t117.5 75.5t151.5 24.5q147 0 221 -81.5t78 -212.5q0 -39 -4 -72t-10 -55q-8 -27 -14 -50l-434 -12q0 -49 15 -83t40.5 -54.5t58.5 -29.5t70 -9q35 0 75 10t74 23q39 14 78 35l84 -170q-43 -27 -98 -50q-47 -18 -114.5 -32.5 t-153.5 -14.5q-70 0 -135.5 22.5t-114.5 75t-77 135.5q-23 68 -23 161q0 21 1 43zM291 485l235 21q0 2 2 6q0 4 1 8t1 8q0 20 -4 45t-15 46.5t-29.5 36t-43.5 14.5q-55 0 -96 -43.5t-51 -141.5z" />
<glyph unicode="f" horiz-adv-x="591" d="M0 805l145 2q0 29 1 45t1 33q0 68 8.5 129t36 108t82 75t148.5 28q39 0 71.5 -4t57.5 -9q29 -6 51 -12l-35 -184q-37 8 -69 12q-29 4 -58.5 4t-46.5 -10q-35 -18 -35 -96q0 -8 1 -38t1 -83l187 6l4 -176l-195 -6q-4 -104 -4 -215t-2 -203q-2 -109 -2 -211h-229 q4 102 10 211q4 92 7 200.5t7 213.5l-141 -2z" />
<glyph unicode="g" horiz-adv-x="1013" d="M43 78q2 59 39 117.5t78 93.5q-96 92 -97 235q0 78 29 135.5t78 95.5t115.5 56t142.5 18q55 0 107.5 -12t101.5 -35l274 31l-2 -195q-23 2 -45 9q-20 4 -46.5 9t-53.5 11q14 -29 24.5 -67.5t12.5 -73.5q1 -10 0 -21q0 -49 -16 -97q-19 -58 -64 -103t-117 -73 q-67 -26 -158 -26h-14q-47 2 -81 9.5t-66 17.5q-6 -6 -18.5 -17.5t-21.5 -25.5t-11.5 -30.5t10.5 -30.5q14 -16 52 -14.5t88 11t111 17.5q35 5 68 5q26 0 51 -3q59 -6 108.5 -28.5t83.5 -59.5t49 -88q11 -37 11 -79q0 -17 -2 -34q-10 -82 -43 -134t-82 -81t-111 -39 q-52 -9 -108 -8h-22q-92 2 -168 14.5t-131 26.5q-66 16 -117 35l59 184q57 -20 123 -35q53 -14 122 -24.5t136 -10.5q35 0 64.5 17.5t36.5 56.5q6 35 -16.5 57.5t-61.5 26.5q-23 2 -59.5 -2t-81 -10t-90.5 -11q-33 -4 -63 -4q-12 0 -24 1q-90 4 -139 53q-45 45 -45 117v12z M276 496q0 -61 37 -98.5t88 -41.5q9 -1 18 0q56 0 94 34q44 40 48 99q0 8 1 16q0 55 -27 92q-31 42 -86 46q-9 1 -19 1q-60 0 -103 -36q-51 -40 -51 -112z" />
<glyph unicode="h" horiz-adv-x="1032" d="M92 0l31 1225l215 -4l-12 -549q23 29 52.5 56.5t66 50t81.5 36.5t99 14q76 0 122 -33.5t72.5 -82.5t35.5 -106.5t9 -104.5v-49q0 -31 -1 -70t-1 -82v-86q-2 -100 -2 -215h-244q4 96 11 182q4 74 8 146.5t8 113.5q1 10 1 20q0 64 -24 106q-23 40 -66 40q-9 0 -19 -2 q-66 -10 -121.5 -64.5t-91.5 -121.5l-9 -420h-221z" />
<glyph unicode="i" horiz-adv-x="532" d="M-25 791q84 10 159 15t132 7q23 1 44 1q42 0 79 -3l-24 -811h-236l45 627l-194 -21zM164 963l2 241h219l-14 -239z" />
<glyph unicode="j" horiz-adv-x="528" d="M-123 -358l57 194q16 -10 39 -18q18 -6 41 -7t52 9q49 20 67.5 62t22.5 114q2 27 3 68.5t3 91t3 102.5t3 107q4 123 6 260l-192 -25l-5 184q84 10 158 15.5t129 9.5q66 2 121 2l-16 -780v-2q-4 -178 -71 -294t-194 -132q-33 -5 -61 -5q-18 0 -34 2q-42 5 -70 15 q-35 11 -62 27zM164 963l2 241h219l-14 -239z" />
<glyph unicode="k" horiz-adv-x="923" d="M92 0l31 1221l225 4l-29 -733l242 321l279 -2l-351 -383l416 -428h-319l-271 326l-6 -326h-217z" />
<glyph unicode="l" horiz-adv-x="550" d="M78 225q0 80 4 202t9 259t10 277.5t5 257.5l220 4q0 -41 -3.5 -120t-8.5 -176.5t-10 -201.5t-10 -197.5t-9 -162.5q-4 -72 -5 -103q0 -47 23 -65q25 -20 51 -23q18 -2 40 1t40 7q23 4 41 9l55 -170q-23 -16 -53 -27q-27 -10 -65.5 -17.5t-85.5 -7.5q-113 0 -179.5 68.5 t-68.5 185.5z" />
<glyph unicode="m" horiz-adv-x="1523" d="M92 805l211 6q4 -16 13.5 -59t19.5 -95q16 27 40.5 57.5t56.5 56.5t73 42t88 16q49 0 86 -16t63.5 -42t44 -59.5t29.5 -68.5q18 33 46 67.5t66 62.5t84 45.5t99 17.5q76 0 123 -37t73.5 -90.5t36 -113.5t9.5 -108v-280q0 -98 2 -207h-246q4 106 8 203q4 82 6 161.5 t2 120.5q0 72 -30 106q-29 32 -78 32h-6q-49 -2 -97.5 -44t-76.5 -102q0 -49 1 -130t3 -159q2 -90 4 -188h-244q4 100 8 190q4 78 5 155q0 29 2 69.5t2 58.5q0 65 -26 106q-28 44 -89 44q-39 0 -90.5 -37t-73.5 -90q-2 -119 -2 -210v-155v-131h-240q4 111 11 217 q4 92 7 188.5t3 165.5q0 4 -5 41t-10 80q-6 52 -12 113z" />
<glyph unicode="n" horiz-adv-x="1034" d="M92 805l215 6q4 -18 12.5 -58t18.5 -87q23 29 50.5 58.5t62 53t77.5 37.5t99 14q76 0 122 -33.5t72.5 -82.5t35.5 -106.5t9 -104.5v-49q0 -31 -1 -70t-1 -82v-86q-2 -100 -2 -215h-244q4 96 11 182q4 74 8 146.5t8 113.5q1 10 1 20q0 64 -24 106q-23 40 -66 40 q-9 0 -19 -2q-63 -10 -111.5 -62t-85.5 -120q-1 -68 -1 -126v-55q1 -79 1 -132q0 -63 2 -111h-242q4 111 11 217q4 92 7 188.5t3 165.5q0 4 -5 41t-10 80q-8 52 -14 113z" />
<glyph unicode="o" horiz-adv-x="937" d="M59 395q4 205 107.5 319.5t284.5 114.5q100 0 168.5 -33.5t111.5 -91t61.5 -133t18.5 -157.5q-2 -98 -28.5 -179t-76 -139.5t-121 -91.5t-161.5 -33q-182 0 -276 110q-89 105 -89 297v17zM279 395q0 -5 -1 -11q0 -99 36 -160q38 -65 114 -64q61 0 104 68q47 75 48 195 q0 98 -43 154q-45 58 -107 58q-55 0 -101 -58.5t-50 -181.5z" />
<glyph unicode="p" horiz-adv-x="991" d="M92 -397l29 1202l205 6l-2 -100q45 47 104 82.5t139 35.5t138.5 -39.5t96.5 -104t53 -143.5q11 -56 11 -112q0 -22 -2 -45q-8 -102 -39.5 -182t-83 -133.5t-119.5 -78.5q-55 -21 -118 -21q-15 0 -31 1q-51 4 -93 16.5t-69 35.5l-4 -416zM313 201q16 -23 45 -43.5 t80 -20.5q72 0 128.5 62.5t68.5 175.5q3 24 3 46t-3 44q-6 43 -22.5 76.5t-46 55t-70.5 26.5h-11q-27 0 -50 -9q-28 -10 -50.5 -26.5t-38.5 -33.5t-24 -30z" />
<glyph unicode="q" horiz-adv-x="991" d="M61 430q8 90 35 166t73 131t109.5 86t145.5 31q72 0 126 -29t83 -70v60l205 6l-23 -1202l-225 -6l28 497l-46 -46q-24 -24 -53.5 -43t-65.5 -30q-31 -10 -70 -10h-14q-80 2 -140.5 42t-100.5 103.5t-57 145.5q-12 56 -12 113q-1 27 2 55zM285 414q0 -94 35.5 -162 t107.5 -72h14q57 0 100 30q48 34 79 73l6 270q-18 47 -54 83t-96 40h-8q-33 0 -62 -16q-34 -17 -62 -52t-44 -85t-16 -109z" />
<glyph unicode="r" horiz-adv-x="847" d="M92 0q8 111 17 217q6 90 12 187.5t6 166.5q0 4 -6 41t-12 80q-8 51 -17 113l211 6q4 -18 12.5 -72.5t18.5 -103.5q25 49 61 90q31 35 78 65.5t113 38.5q27 2 51 3q18 0 34 -2q38 -3 64 -11q31 -8 51 -20l-81 -228q-27 10 -56 19q-25 6 -57 9q-14 1 -29 1q-19 0 -39 -2 q-47 -8 -77.5 -27.5t-53.5 -42.5q-25 -25 -41 -57q-2 -119 -4 -207t-4 -147l-6 -117h-246z" />
<glyph unicode="s" horiz-adv-x="866" d="M61 32q0 4 9 29q10 31 20 70q12 45 31 102q25 -8 63.5 -20t81.5 -24.5t83 -20.5t69 -8q43 0 60.5 8t21.5 31q1 4 0 8q0 34 -45 60q-51 30 -144 77q-41 20 -83 44t-74.5 55.5t-52.5 73.5q-15 32 -14 73q0 13 1 26q12 111 83 161t187 52q49 0 106.5 -5t106.5 -11 q57 -8 113 -16l-22 -191q-49 12 -93 21q-39 8 -77.5 15t-67.5 11q-24 3 -45 3t-40 -3q-38 -6 -40 -49q-2 -29 30.5 -51.5t80.5 -46.5q68 -37 129 -70t105 -71.5t67 -85.5q17 -35 16 -79q0 -16 -2 -34q-12 -106 -90 -149.5t-229 -43.5h-22q-54 0 -106 9q-62 10 -110 20 q-107 24 -107 30z" />
<glyph unicode="t" horiz-adv-x="636" d="M0 621v184l162 6q6 45 13 95l13 93l15 101l235 -13q-12 -47 -24 -96q-10 -41 -21.5 -90t-19.5 -90h186l-2 -178l-205 -2q-4 -102 -7 -199.5t-3 -159.5q0 -57 14.5 -76.5t30.5 -19.5t33.5 6t30.5 15q14 8 28 22l101 -137q-23 -37 -58 -62q-29 -23 -73 -38q-33 -12 -77 -12 q-16 0 -34 1q-90 8 -148.5 71.5t-60.5 182.5q0 66 7 170.5t14 227.5z" />
<glyph unicode="u" horiz-adv-x="987" d="M76 309v49v70q0 39 1 82t1 86q2 98 2 215h244q-4 -98 -11 -182q-4 -74 -9 -146.5t-7 -113.5q-1 -12 -1 -24q0 -73 22 -126q26 -61 88 -61q20 0 41.5 14t43 37.5t43 53.5t39.5 61q2 117 5.5 208t5.5 152q2 72 4 127h246q-8 -111 -17 -215q-6 -90 -11 -186.5t-5 -163.5 q0 -4 1 -43t5 -84l8 -119h-211q-6 16 -10 58t-8 89q-18 -29 -43 -60.5t-57.5 -57t-73.5 -42t-93 -16.5q-74 0 -120.5 40t-74.5 94.5t-38 111.5t-10 92z" />
<glyph unicode="v" horiz-adv-x="925" d="M12 811h226l153 -393l41 -127l45 127l139 393h228l-342 -811h-176z" />
<glyph unicode="w" horiz-adv-x="1433" d="M12 811h219l129 -393l41 -144l45 144l127 393h222l108 -393l37 -144l41 144l123 393h248l-316 -811h-176l-155 457l-25 86l-31 -86l-180 -457h-182z" />
<glyph unicode="x" horiz-adv-x="1011" d="M41 0l315 403l-303 408h279l162 -264l202 264h252l-340 -399l289 -412h-264l-154 260l-188 -260h-250z" />
<glyph unicode="y" horiz-adv-x="944" d="M10 811h252l184 -653l211 653h258l-118 -307q-25 -66 -53.5 -138.5t-57.5 -146.5t-57.5 -145.5t-53.5 -134.5q-39 -98 -82.5 -163t-90 -104t-95.5 -54t-98 -15q-41 0 -73 6t-54 14q-27 8 -47 21l63 188q20 -12 43 -20q20 -6 45 -9.5t54 7.5q27 8 47 27.5t35.5 43t26.5 48 t22 42.5l14 29h-92z" />
<glyph unicode="z" horiz-adv-x="897" d="M59 0v172l414 465l-403 -10v202h663v-167l-403 -474l413 17v-205h-684z" />
<glyph unicode="{" horiz-adv-x="722" d="M109 571v170q45 -4 81 4q31 8 56.5 31t25.5 72t-8 85t-18 71.5t-19.5 74.5t-11.5 92q-2 63 26.5 106.5t71.5 71t95.5 41t96.5 20.5t74 8l29 1l19 -186h-47q-18 0 -37 1t-29 1t-27.5 -5t-33 -18.5t-25.5 -36t-4 -59.5q6 -35 17.5 -72.5t23.5 -74.5t21.5 -70t11.5 -59 q4 -72 -33 -118t-105 -58q68 -12 105 -65.5t33 -125.5q-2 -27 -11.5 -71t-20.5 -93t-22.5 -97t-17.5 -83q-6 -37 4 -58.5t25.5 -34.5t33 -18.5t27.5 -7.5q10 -4 28.5 -5t35.5 -3q20 -2 41 -2l-17 -195l-29 4q-29 3 -71.5 11t-94 24.5t-94.5 44t-71.5 70.5t-28.5 104 q0 59 9 111.5t19.5 101t19.5 94.5t9 95q0 47 -25.5 70.5t-56.5 31.5q-36 8 -81 4z" />
<glyph unicode="|" horiz-adv-x="460" d="M96 -125l2 1456h230l-13 -1454z" />
<glyph unicode="}" horiz-adv-x="667" d="M51 1214l17 199h30q31 0 77 -6t99.5 -20.5t98.5 -42t71.5 -71.5t22.5 -108q-4 -55 -14.5 -94t-19.5 -73.5t-16 -70.5t-7 -85t25.5 -71.5t56.5 -31.5q37 -8 81 -4l-2 -168q-45 2 -82 -6q-31 -8 -55 -31.5t-24 -70.5q0 -49 9 -95.5t19.5 -94.5t19.5 -100t9 -112 q0 -61 -29.5 -104t-72.5 -70.5t-95.5 -44t-95.5 -25t-73 -11.5l-29 -3l-17 195q20 0 41 2q16 2 33.5 3t30.5 5q10 2 27.5 7t33 18.5t25.5 35t4 58.5q-6 35 -17.5 83t-22.5 97t-20.5 93t-11.5 71q-4 72 33 125t104 65q-68 12 -104.5 58.5t-32.5 118.5q2 27 11.5 59.5t21.5 68 t23.5 72.5t17.5 72q6 37 -4 59.5t-27.5 34.5t-35 16.5t-27.5 4.5t-28.5 -1t-35.5 -3q-20 -3 -43 -3z" />
<glyph unicode="~" horiz-adv-x="1169" d="M176 471q41 35 86 64q39 25 85 45t93 20q43 0 81 -12.5t72 -26.5t65.5 -26.5t62.5 -12.5q29 0 54.5 10.5t45.5 22.5q23 14 45 33l121 -150q-33 -39 -69 -67q-35 -27 -80 -47.5t-103 -20.5q-41 0 -80 15.5t-76.5 33t-76.5 29.5t-78 4q-23 -4 -42.5 -16.5t-35.5 -26.5 q-18 -16 -35 -37q-39 47 -69 84q-27 31 -47.5 56.5t-18.5 25.5z" />
<glyph unicode="&#xa1;" horiz-adv-x="548" d="M166 1176l2 -212.987h194l-12 210.987zM176 781.024v-73.9961q0 -46.9971 1 -106.493t2 -126.992t1 -135.492q2 -157.99 4 -337.979h231q-12 181.988 -20 339.979q-4 67.9961 -7 135.492t-6 126.992t-5 105.493t-2 70.9961q-57 2 -101 2q-37 0 -67.5 1t-30.5 -1z" />
<glyph unicode="&#xa2;" horiz-adv-x="835" d="M59 393q2 131 40 215t90.5 133.5t111.5 68.5t105 19q18 0 36.5 -2t26.5 -4l20 123l144 -24l-37 -125q43 -14 84 -25.5t51 -15.5l-51 -176q-16 4 -37 10l-37 9q-20 5 -41 9l-78 -432q31 2 64 8t61 15q33 8 64 18l57 -180q-37 -18 -82 -31q-39 -12 -92 -21.5t-117 -13.5 l-14 -106l-160 20l31 101q-47 12 -91 40.5t-78 77t-53.5 120t-17.5 169.5zM276 373q0 -59 21.5 -106.5t48.5 -61.5l80 416q-68 -14 -108 -72.5t-42 -175.5z" />
<glyph unicode="&#xa3;" horiz-adv-x="1073" d="M66 0l2 199l221 -2q-4 37 -16.5 120.5t-26.5 188.5h-180l2 199h159l-6 86q-2 78 19.5 149.5t74 126.5t138.5 89t209 34q47 0 94 -4t86 -8q45 -6 86 -13l-62 -207q-37 12 -73 21q-33 8 -72 15t-74 7q-43 0 -83 -10t-70.5 -31.5t-49 -53.5t-18.5 -72q0 -33 1 -65t3 -64h291 l-12 -197l-263 -2q10 -98 18.5 -178t4.5 -133h162q45 0 84 15t69 36q35 23 66 51q41 -39 74 -68q14 -12 26.5 -23t22.5 -22q10 -10 22 -20q-33 -53 -77 -86t-89 -50.5t-86 -22.5t-65 -5h-612z" />
<glyph unicode="&#xa4;" horiz-adv-x="1388" d="M29 463l227 94q-43 92 -39 225q2 57 11.5 107.5t29.5 95.5l-219 84l160 268l180 -194q119 88 309 88q104 0 179 -24.5t126 -67.5l174 145l156 -266l-219 -53q20 -74 20 -164q-6 -135 -59 -240l209 -96l-172 -256l-172 205q-53 -35 -121 -53.5t-150 -18.5q-168 0 -274 66 l-162 -185zM467 782q-2 -117 48 -186.5t161 -69.5q90 0 133 75t47 206q4 115 -49 175t-143 60q-78 0 -135.5 -61.5t-61.5 -198.5z" />
<glyph unicode="&#xa5;" horiz-adv-x="1032" d="M-49 1176h282l195 -445l47 -125l51 125l205 445h266l-329 -603l211 7l-13 -187l-276 4l-6 -100l295 4l-13 -174l-293 6l-2 -133h-235l4 131l-254 -6l2 176l256 -4l4 98l-262 -4l2 189l199 -7z" />
<glyph unicode="&#xa6;" horiz-adv-x="460" d="M96 -125l2 645h230l-13 -643zM96 711l2 620h230l-13 -618z" />
<glyph unicode="&#xa7;" horiz-adv-x="856" d="M14 49q0 -2 9.5 31t19.5 72l29 102q43 -25 90 -45q41 -16 87 -29.5t89 -13.5q59 0 91 10t38 45q4 25 -7 44.5t-34 36.5t-54.5 34.5t-68.5 40.5q-53 33 -99 63.5t-78 66.5t-47.5 78t-4.5 95q10 57 38.5 93t69.5 54q-43 43 -63.5 95.5t-9.5 115.5q10 57 40.5 94t72.5 56.5 t92.5 27t99.5 7.5q70 0 125 -9.5t94 -19.5q45 -12 78 -29l-64 -174q-27 14 -55 25q-25 10 -53.5 18t-57.5 13q-49 6 -94 0.5t-55 -41.5q-8 -27 6 -50.5t42 -47t62.5 -45t67.5 -42.5q76 -49 122 -87t69.5 -72.5t29.5 -68.5t4 -73q-4 -66 -44 -108.5t-68 -55.5q47 -45 62 -86 t5 -110q-16 -100 -94 -143.5t-221 -43.5q-66 0 -130.5 11.5t-115.5 25.5q-60 16 -115 39zM293 651q-4 -23 8 -42t33.5 -37.5t48.5 -36t55 -35.5q4 -4 8 -6q23 10 39.5 22t22.5 35t-7.5 41t-37 35.5t-54 35t-61.5 35.5q-4 0 -5 2t-5 2q-37 -16 -45 -51z" />
<glyph unicode="&#xa8;" horiz-adv-x="874" d="M190 977l3 213h194l-12 -211zM500 981l2 213h194l-12 -211z" />
<glyph unicode="&#xa9;" horiz-adv-x="1366" d="M45 588q0 145 53.5 260t137 193.5t187 119.5t202.5 41q135 0 246.5 -42t191.5 -118.5t124 -183t44 -237.5q0 -141 -47 -260t-130 -205t-197 -134.5t-249 -48.5q-121 0 -224 45t-178 126t-118 195t-43 249zM219 588q0 -109 32 -195t86 -145.5t128 -91t158 -31.5 q90 0 168.5 35t138 100.5t94.5 157.5t35 207q0 96 -33 175t-90 135t-133 87t-164 31q-70 0 -144.5 -29t-136 -87t-100.5 -145t-39 -204zM356 586q4 94 31 159.5t69 105.5t93 55.5t104 13.5q43 -2 83 -12.5t70 -23t47 -22.5t17 -12l-59 -131q-25 12 -49 22q-23 10 -47.5 16.5 t-46.5 8.5q-68 2 -103 -49t-41 -123q-8 -98 31 -146.5t111 -39.5q23 2 48 10t48.5 16t39.5 15l15 6l64 -115q-25 -23 -62 -43q-31 -16 -77 -30.5t-107 -14.5q-131 -2 -207 75t-72 259z" />
<glyph unicode="&#xaa;" horiz-adv-x="804" d="M47 952q0 61 20.5 105.5t58.5 72t88 40t110 12.5q47 0 76.5 -2t58.5 -6q2 16 2 31v22q0 86 -111 86q-33 0 -75 -5t-80 -12q-45 -8 -93 -16v197q35 4 74 8q35 4 76 7t86 3q113 0 178.5 -21.5t98 -61.5t40 -96t0.5 -126q-2 -33 -6 -72t-8 -75.5t-7 -66.5t-3 -46 q0 -10 4 -18.5t16 -10.5q10 -2 25.5 3t30.5 14q16 8 30 20l92 -123q-18 -33 -49 -55q-27 -20 -68.5 -35.5t-103.5 -11.5q-61 4 -98 38.5t-53 90.5q-35 -49 -86.5 -89t-122.5 -40q-49 0 -86 20.5t-62.5 53t-39 75.5t-13.5 90zM254 963q0 -37 21.5 -58.5t52.5 -21.5 q35 0 62.5 27.5t49.5 56.5q4 14 7.5 41.5t3.5 44.5q-8 2 -19.5 3t-46.5 1q-59 0 -95 -23.5t-36 -70.5z" />
<glyph unicode="&#xab;" horiz-adv-x="1038" d="M-6 401l371 412l141 -127l-287 -276l311 -304l-151 -126zM358 401l379 412l142 -127l-289 -276l313 -304l-151 -126z" />
<glyph unicode="&#xad;" horiz-adv-x="743" d="M41 393l2 211l571 4l-12 -213z" />
<glyph unicode="&#xae;" horiz-adv-x="1366" d="M45 588q0 145 53.5 260t137 193.5t187 119.5t202.5 41q135 0 246.5 -42t191.5 -118.5t124 -183t44 -237.5q0 -141 -47 -260t-130 -205t-197 -134.5t-249 -48.5q-121 0 -224 45t-178 126t-118 195t-43 249zM219 588q0 -109 32 -195t86 -145.5t128 -91t158 -31.5 q90 0 168.5 35t138 100.5t94.5 157.5t35 207q0 96 -33 175t-90 135t-133 87t-164 31q-70 0 -144.5 -29t-136 -87t-100.5 -145t-39 -204zM354 289l6 614h263q55 0 95 -17.5t65.5 -45t38 -62.5t12.5 -71q0 -72 -34 -123.5t-108 -65.5q8 -14 10.5 -21.5t18.5 -35.5 q18 -35 44 -43t48 -10q12 -2 26.5 0t26.5 6l29 8l23 -133q-14 -6 -31 -10q-31 -10 -68 -11q-72 0 -125 34t-92 112q-16 29 -25.5 50t-19.5 46h-45l-8 -221h-150zM510 627h98q41 0 59.5 22.5t18.5 57.5t-21.5 55t-56.5 20h-94z" />
<glyph unicode="&#xaf;" horiz-adv-x="825" d="M127 997l2 162l578 2l-2 -162z" />
<glyph unicode="&#xb0;" horiz-adv-x="534" d="M4 1022q0 51 19.5 97t52.5 80t77 53.5t93 19.5t94 -19.5t78 -53.5t52 -80t19 -97t-19 -95t-52 -78t-78 -53.5t-94 -19.5t-93 19.5t-77 53.5t-52.5 78t-19.5 95zM152 1020q-4 -41 24.5 -66.5t65.5 -23.5q35 4 59.5 26.5t24.5 63.5q0 39 -25 61.5t-63 22.5 q-41 0 -62.5 -22.5t-23.5 -61.5z" />
<glyph unicode="&#xb2;" horiz-adv-x="651" d="M68 1450q23 12 57 23q29 8 70 15t94 7q88 0 149.5 -22.5t98 -59.5t53 -85t16.5 -99q0 -59 -26.5 -115.5t-69.5 -103.5t-94 -83t-99 -55l295 23l-6 -174h-522v151q18 10 72.5 44t112 80t102.5 101.5t45 110.5q2 68 -36 93.5t-91 29.5q-39 2 -73 -5t-58 -17 q-29 -10 -54 -27z" />
<glyph unicode="&#xb3;" horiz-adv-x="745" d="M88 776l43 162q31 -16 62 -27q27 -10 58.5 -18t59.5 -12q20 -2 46 -3t49.5 5t42 19t22.5 40q6 35 -11.5 60.5t-47 38t-64.5 8t-63 -28.5l-113 98l215 191l-223 -11l2 175h459l4 -148q-51 -37 -92 -68q-35 -27 -67 -50t-38 -27q18 0 39 -2q16 -2 35.5 -5.5t38.5 -9.5 q68 -27 99.5 -88t21.5 -147q-14 -117 -100.5 -169t-235.5 -42q-119 8 -180.5 32.5t-61.5 26.5z" />
<glyph unicode="&#xb4;" horiz-adv-x="671" d="M100 1063l332 229l103 -159l-336 -201z" />
<glyph unicode="&#xb7;" horiz-adv-x="495" d="M117 451l2 260h239l-16 -256z" />
<glyph unicode="&#xb8;" horiz-adv-x="593" d="M129 -285l6 166q20 -6 39 -8q16 -2 32.5 0t31.5 12q18 14 25 38t8 45.5t-2 37.5l-3 17l10 3q10 3 23.5 4t27 1t17.5 -6q10 -10 23.5 -32t21.5 -38t13.5 -41t4.5 -50.5t-10.5 -51t-29.5 -43.5q-33 -29 -73 -40.5t-77 -15.5q-43 -4 -88 2z" />
<glyph unicode="&#xb9;" horiz-adv-x="571" d="M53 1372l398 123l-5 -774h-184l10 547l-170 -45z" />
<glyph unicode="&#xba;" horiz-adv-x="913" d="M123 1100q4 186 98 290.5t258 104.5q90 0 153.5 -30.5t102.5 -83t55.5 -120t16.5 -143.5q-2 -90 -26.5 -163.5t-69.5 -127t-109.5 -83t-146.5 -29.5q-166 0 -250 99.5t-82 285.5zM332 1100q-2 -90 29.5 -144.5t97.5 -54.5q53 0 89 58.5t40 156.5q0 90 -37 139.5t-90 49.5 q-47 0 -87 -50.5t-42 -154.5z" />
<glyph unicode="&#xbb;" horiz-adv-x="1107" d="M74 106l313 304l-289 276l142 127l378 -412l-393 -421zM446 106l302 304l-265 264l142 139l374 -412l-391 -421z" />
<glyph unicode="&#xbc;" horiz-adv-x="808" d="M25 492v159h723v-159h-723zM55 1372l398 123l-5 -774h-184l10 547l-170 -45zM82 -209v145l256 508l176 -90l-252 -407l135 4v147h158l-6 -137l125 10l6 -180l-121 2l2 -147l-170 -2l6 151z" />
<glyph unicode="&#xbd;" horiz-adv-x="808" d="M105 389q23 12 57 23q29 8 70 15t94 7q88 0 149.5 -22.5t98 -59.5t53 -85t16.5 -99q0 -59 -26.5 -115.5t-69.5 -103.5t-94 -83t-99 -55l295 23l-6 -174h-522v151q18 10 72.5 44t112 80t102.5 101.5t45 110.5q2 68 -36 93.5t-91 29.5q-39 2 -73 -5t-58 -17 q-29 -10 -54 -27zM25 492v159h723v-159h-723zM55 1372l398 123l-5 -774h-184l10 547l-170 -45z" />
<glyph unicode="&#xbe;" horiz-adv-x="808" d="M68 -209v145l256 508l176 -90l-252 -407l135 4v147h158l-6 -137l125 10l6 -180l-121 2l2 -147l-170 -2l6 151zM25 492v159h723v-159h-723zM100 776l43 162q31 -16 62 -27q27 -10 58.5 -18t59.5 -12q20 -2 46 -3t49.5 5t42 19t22.5 40q6 35 -11.5 60.5t-47 38t-64.5 8 t-63 -28.5l-113 98l215 191l-223 -11l2 175h459l4 -148q-51 -37 -92 -68q-35 -27 -67 -50t-38 -27q18 0 39 -2q16 -2 35.5 -5.5t38.5 -9.5q68 -27 99.5 -88t21.5 -147q-14 -117 -100.5 -169t-235.5 -42q-119 8 -180.5 32.5t-61.5 26.5z" />
<glyph unicode="&#xbf;" horiz-adv-x="944" d="M887.001 59.0693q-32.998 -15.999 -79.9951 -29.998q-38.9971 -11.999 -96.4941 -21.499q-57.4961 -9.49902 -133.492 -13.499q-177.988 -5.99902 -292.481 44.9971q-114.493 50.9971 -155.491 169.99q-36.9971 103.993 -20.498 187.988t64.4961 150.491 q47.9971 66.4951 117.492 115.992q69.4961 49.4971 142.492 84.9951q72.9951 35.498 137.491 59.9961q64.4961 24.499 101.494 41.498q1.99902 2 10.999 -23.499q8.99902 -25.498 20.999 -56.4961q13.999 -36.998 32.9971 -79.9951q-46.9971 -19.999 -121.992 -50.9971 t-139.491 -75.9951q-64.4961 -44.998 -102.994 -108.494q-38.4971 -63.4961 -14.499 -149.49q22.999 -77.9951 86.4951 -103.494q63.4961 -25.498 145.491 -21.498q56.9961 3.99902 100.993 13.499q43.998 9.49902 72.9961 19.499q36.9971 11.999 60.9961 23.998z M669.015 1198l-2 -212.987h-193.988l11.999 210.987z" />
<glyph unicode="&#xc0;" d="M41 0q115 295 226.5 588t226.5 588h251q125 -295 248 -588t248 -588h-272q-33 88 -60 156q-23 59 -42 107t-19 50q-29 -2 -98.5 -4t-145.5 -4t-135 -4t-66 -2q-31 -78 -58.5 -149.5l-57.5 -149.5h-246zM477 502l307 16q-41 104 -79.5 210t-75.5 210q-29 -96 -72 -214 t-80 -222zM432 1495l99 157l336 -227l-99 -131z" />
<glyph unicode="&#xc1;" d="M41 0q115 295 226.5 588t226.5 588h251q125 -295 248 -588t248 -588h-272q-33 88 -60 156q-23 59 -42 107t-19 50q-29 -2 -98.5 -4t-145.5 -4t-135 -4t-66 -2q-31 -78 -58.5 -149.5l-57.5 -149.5h-246zM477 502l307 16q-41 104 -79.5 210t-75.5 210q-29 -96 -72 -214 t-80 -222zM430 1456l332 229l103 -159l-336 -201z" />
<glyph unicode="&#xc2;" d="M41 0q115 295 226.5 588t226.5 588h251q125 -295 248 -588t248 -588h-272q-33 88 -60 156q-23 59 -42 107t-19 50q-29 -2 -98.5 -4t-145.5 -4t-135 -4t-66 -2q-31 -78 -58.5 -149.5l-57.5 -149.5h-246zM477 502l307 16q-41 104 -79.5 210t-75.5 210q-29 -96 -72 -214 t-80 -222zM325 1458l320 215l293 -231l-127 -135l-176 161l-193 -149z" />
<glyph unicode="&#xc3;" d="M41 0q115 295 226.5 588t226.5 588h251q125 -295 248 -588t248 -588h-272q-33 88 -60 156q-23 59 -42 107t-19 50q-29 -2 -98.5 -4t-145.5 -4t-135 -4t-66 -2q-31 -78 -58.5 -149.5l-57.5 -149.5h-246zM254 1450q31 37 68 66q31 25 71.5 45t87.5 20q43 0 74 -12.5 t56.5 -26.5t50 -26.5t55.5 -12.5q29 0 50 14.5t38 30.5q18 20 31 45l139 -123q-27 -47 -62 -84q-31 -31 -73.5 -56t-100.5 -25q-41 0 -73.5 14t-63.5 30.5t-63.5 28t-71.5 2.5q-23 -4 -39 -15t-29 -24q-14 -14 -26 -32q-35 41 -62 71q-23 27 -41 48.5t-16 21.5zM477 502 l307 16q-41 104 -79.5 210t-75.5 210q-29 -96 -72 -214t-80 -222z" />
<glyph unicode="&#xc4;" d="M41 0q115 295 226.5 588t226.5 588h251q125 -295 248 -588t248 -588h-272q-33 88 -60 156q-23 59 -42 107t-19 50q-29 -2 -98.5 -4t-145.5 -4t-135 -4t-66 -2q-31 -78 -58.5 -149.5l-57.5 -149.5h-246zM477 502l307 16q-41 104 -79.5 210t-75.5 210q-29 -96 -72 -214 t-80 -222zM413 1342l3 213h194l-12 -211zM723 1346l2 213h194l-12 -211z" />
<glyph unicode="&#xc5;" d="M41 0q115 295 226.5 588t226.5 588h251q125 -295 248 -588t248 -588h-272q-33 88 -60 156q-23 59 -42 107t-19 50q-29 -2 -98.5 -4t-145.5 -4t-135 -4t-66 -2q-31 -78 -58.5 -149.5l-57.5 -149.5h-246zM477 502l307 16q-41 104 -79.5 210t-75.5 210q-29 -96 -72 -214 t-80 -222zM455 1536q0 37 13 68.5t36.5 55t55.5 38t67 14.5t66.5 -14.5t55 -38t37 -55t13.5 -68.5t-13.5 -69t-37 -55.5t-55.5 -37.5t-66 -14q-35 0 -67 14t-55.5 37.5t-36.5 55.5t-13 69zM559 1534q-2 -29 17.5 -47.5t45.5 -16.5q27 2 43.5 18.5t16.5 45.5q0 27 -16.5 43 t-45.5 16t-44 -16t-17 -43z" />
<glyph unicode="&#xc6;" horiz-adv-x="1730" d="M41 0l676 1176h901l-4 -222l-563 4l-7 -243l404 4l-4 -223h-408l-4 -277l553 4l-6 -223h-788l2 287l-328 -11l-164 -276h-260zM594 498l215 6l18 428z" />
<glyph unicode="&#xc7;" horiz-adv-x="1062" d="M33 580q6 170 53 286.5t121 187t166 102.5t188 34q82 0 151.5 -18.5t122 -42t81 -44t26.5 -22.5l-133 -172q-29 23 -64 43q-31 16 -71.5 30.5t-87.5 18.5q-61 4 -118.5 -18.5t-103 -70.5t-72 -124t-28.5 -178q-2 -111 19.5 -188.5t62.5 -126t98.5 -69t128.5 -13.5 q49 4 97.5 18t85.5 29.5t59.5 28t24.5 12.5l114 -187q-35 -31 -88 -55q-45 -23 -111.5 -42t-158.5 -26q4 -4 5 -9t5 -9q8 -16 13.5 -41t4.5 -50.5t-10.5 -51t-29.5 -43.5q-33 -29 -73 -40.5t-77 -15.5q-43 -4 -88 2l6 166q20 -6 39 -8q16 -2 32.5 0t31.5 12q18 16 25 41 t7 47q-106 6 -193 44t-146.5 112t-90 185.5t-24.5 265.5z" />
<glyph unicode="&#xc8;" horiz-adv-x="1114" d="M356 1495l99 157l336 -227l-99 -131zM92 0l17 1176h892l-4 -222l-665 19l4 -266l495 4l-4 -215l-510 8l7 -285l645 4l-6 -223h-871z" />
<glyph unicode="&#xc9;" horiz-adv-x="1114" d="M327 1456l332 229l103 -159l-336 -201zM92 0l17 1176h892l-4 -222l-665 19l4 -266l495 4l-4 -215l-510 8l7 -285l645 4l-6 -223h-871z" />
<glyph unicode="&#xca;" horiz-adv-x="1114" d="M294 1458l320 215l293 -231l-127 -135l-176 161l-193 -149zM92 0l17 1176h892l-4 -222l-665 19l4 -266l495 4l-4 -215l-510 8l7 -285l645 4l-6 -223h-871z" />
<glyph unicode="&#xcb;" horiz-adv-x="1114" d="M333 1342l3 213h194l-12 -211zM643 1346l2 213h194l-12 -211zM92 0l17 1176h892l-4 -222l-665 19l4 -266l495 4l-4 -215l-510 8l7 -285l645 4l-6 -223h-871z" />
<glyph unicode="&#xcc;" horiz-adv-x="512" d="M43 1495l99 157l336 -227l-99 -131zM92 0l12 805l11 371h231l-20 -371l-9 -805h-225z" />
<glyph unicode="&#xcd;" horiz-adv-x="512" d="M41 1436l332 229l103 -159l-336 -201zM92 0l12 805l11 371h231l-20 -371l-9 -805h-225z" />
<glyph unicode="&#xce;" horiz-adv-x="540" d="M-37 1458l320 215l293 -231l-127 -135l-176 161l-193 -149zM92 0l12 805l11 371h231l-20 -371l-9 -805h-225z" />
<glyph unicode="&#xcf;" horiz-adv-x="548" d="M8 1342l3 213h194l-12 -211zM318 1346l2 213h194l-12 -211zM92 0l12 805l11 371h231l-20 -371l-9 -805h-225z" />
<glyph unicode="&#xd0;" d="M-143 485l6 205h239l7 486h423q129 0 248 -39t206 -116t133 -194.5t32 -273.5q-14 -158 -68.5 -263.5t-138.5 -170t-193.5 -92t-234.5 -27.5h-424l6 485h-241zM334 193q8 0 33.5 -1.5t59.5 0t75 3.5t80 8q178 27 253.5 119t86.5 239q8 98 -20 175t-80 131.5t-123.5 83 t-153.5 30.5q-59 2 -99 2h-94l-6 -291h248l-4 -205h-250z" />
<glyph unicode="&#xd1;" horiz-adv-x="1241" d="M92 0l21 1176h247l410 -691l84 -178l-16 869h245l-32 -1176h-236l-444 743l-56 103l21 -846h-244zM227 1450q31 37 68 66q31 25 72 45t88 20q43 0 73.5 -12.5t56 -26.5t50 -26.5t55.5 -12.5q29 0 50.5 14.5t37.5 30.5q18 20 31 45l139 -123q-27 -47 -61 -84 q-31 -31 -74 -56t-100 -25q-41 0 -74 14t-63.5 30.5t-63.5 28t-72 2.5q-23 -4 -39 -15t-28 -24q-14 -14 -27 -32q-35 41 -61 71q-23 27 -41.5 48.5t-16.5 21.5z" />
<glyph unicode="&#xd2;" horiz-adv-x="1175" d="M31 588q0 -176 35.5 -294t99 -189.5t152 -102.5t194.5 -31q119 0 217 43t168 126t107.5 203t37.5 275q0 270 -128 428t-388 158q-92 0 -180 -41t-158.5 -118.5t-113.5 -193.5t-43 -263zM260 586q0 104 24.5 182t63.5 129t87 76.5t97 25.5q125 0 194 -103t69 -278 q0 -102 -19.5 -184t-55.5 -139t-86 -89t-114 -32q-121 0 -190.5 109.5t-69.5 302.5zM315 1495l99 158l336 -228l-99 -131z" />
<glyph unicode="&#xd3;" horiz-adv-x="1175" d="M31 588q0 147 43 263t113.5 193.5t158.5 118.5t180 41q260 0 388 -157.5t128 -428.5q0 -156 -37.5 -275.5t-107.5 -202.5t-168 -126t-217 -43q-106 0 -194.5 31t-152 102.5t-99 189.5t-35.5 294zM260 586q0 -193 69.5 -302.5t190.5 -109.5q63 0 113.5 32t86.5 89 t55.5 139t19.5 184q0 174 -69 277.5t-194 103.5q-49 0 -97 -25.5t-87 -76.5t-63.5 -129t-24.5 -182zM322 1456l331 230l103 -160l-336 -201z" />
<glyph unicode="&#xd4;" horiz-adv-x="1175" d="M31 588q0 147 43 263t113.5 193.5t158.5 118.5t180 41q260 0 388 -157.5t128 -428.5q0 -156 -37.5 -275.5t-107.5 -202.5t-168 -126t-217 -43q-106 0 -194.5 31t-152 102.5t-99 189.5t-35.5 294zM182 1366l400 268l379 -274l-125 -127l-265 188l-290 -186zM260 586 q0 -193 69.5 -302.5t190.5 -109.5q63 0 113.5 32t86.5 89t55.5 139t19.5 184q0 174 -69 277.5t-194 103.5q-49 0 -97 -25.5t-87 -76.5t-63.5 -129t-24.5 -182z" />
<glyph unicode="&#xd5;" horiz-adv-x="1175" d="M31 588q0 147 43 263t113.5 193.5t158.5 118.5t180 41q260 0 388 -157.5t128 -428.5q0 -156 -37.5 -275.5t-107.5 -202.5t-168 -126t-217 -43q-106 0 -194.5 31t-152 102.5t-99 189.5t-35.5 294zM182 1450q31 37 68 66q31 25 71.5 45t88.5 20q43 0 73.5 -12.5t56 -26.5 t50 -26.5t55.5 -12.5q29 0 50.5 14.5t37.5 30.5q18 20 31 45l139 -123q-27 -47 -61 -84q-31 -31 -74 -56t-100 -25q-41 0 -74 14t-63.5 30.5t-63.5 28t-72 2.5q-23 -4 -39 -15t-28 -24q-14 -14 -27 -32q-35 41 -61 71q-23 27 -41.5 48.5t-16.5 21.5zM260 586 q0 -193 69.5 -302.5t190.5 -109.5q63 0 113.5 32t86.5 89t55.5 139t19.5 184q0 174 -69 277.5t-194 103.5q-49 0 -97 -25.5t-87 -76.5t-63.5 -129t-24.5 -182z" />
<glyph unicode="&#xd6;" horiz-adv-x="1177" d="M31 588q0 147 43 263t113.5 193.5t158.5 118.5t180 41q260 0 388 -157.5t128 -428.5q0 -156 -37.5 -275.5t-107.5 -202.5t-168 -126t-217 -43q-106 0 -194.5 31t-152 102.5t-99 189.5t-35.5 294zM260 586q0 -193 69.5 -302.5t190.5 -109.5q63 0 113.5 32t86.5 89 t55.5 139t19.5 184q0 174 -69 277.5t-194 103.5q-49 0 -97 -25.5t-87 -76.5t-63.5 -129t-24.5 -182zM324 1341l2 213h194l-12 -211zM633 1346l2 213h194l-12 -211z" />
<glyph unicode="&#xd7;" horiz-adv-x="894" d="M18 365l240 264l-217 211l190 172l170 -246l203 264l164 -153l-252 -246l258 -240l-199 -160l-188 248l-188 -260z" />
<glyph unicode="&#xd8;" horiz-adv-x="1177" d="M31 598q0 147 43 259t113.5 187.5t158.5 114.5t180 39h13l34 98l195 -47l-41 -82q160 -53 238.5 -190t78.5 -348q0 -154 -37.5 -275t-107.5 -206t-168 -131t-219 -46l-20 -94l-211 35l34 90q-131 47 -207.5 191.5t-76.5 404.5zM256 596q0 -121 31.5 -221.5t85.5 -151.5 l121 770q-43 -8 -86 -35.5t-77 -77t-54.5 -120t-20.5 -164.5zM549 166q57 6 103 45t79 100.5t50.5 142.5t17.5 175q0 129 -35 210t-100 122z" />
<glyph unicode="&#xd9;" horiz-adv-x="1267" d="M82 573v596l250 7v-623q0 -68 15 -134.5t48 -118.5t84 -85t123 -33q139 0 204.5 93.5t65.5 277.5v82q0 45 -1 96t-1 104v101q-2 115 -2 235l252 5v-609q0 -139 -27.5 -249.5t-91 -187.5t-168 -118t-255.5 -41q-258 0 -377 154.5t-119 447.5zM432 1495l98 158l336 -228 l-98 -131z" />
<glyph unicode="&#xda;" horiz-adv-x="1267" d="M82 573v596l250 7v-623q0 -68 15 -134.5t48 -118.5t84 -85t123 -33q139 0 204.5 93.5t65.5 277.5v82q0 45 -1 96t-1 104v101q-2 115 -2 235l252 5v-609q0 -139 -27.5 -249.5t-91 -187.5t-168 -118t-255.5 -41q-258 0 -377 154.5t-119 447.5zM401 1456l332 230l103 -160 l-336 -201z" />
<glyph unicode="&#xdb;" horiz-adv-x="1267" d="M82 573v596l250 7v-623q0 -68 15 -134.5t48 -118.5t84 -85t123 -33q139 0 204.5 93.5t65.5 277.5v82q0 45 -1 96t-1 104v101q-2 115 -2 235l252 5v-609q0 -139 -27.5 -249.5t-91 -187.5t-168 -118t-255.5 -41q-258 0 -377 154.5t-119 447.5zM319 1458l320 215l293 -231 l-127 -135l-176 161l-193 -149z" />
<glyph unicode="&#xdc;" horiz-adv-x="1267" d="M82 573v596l250 7v-623q0 -68 15 -134.5t48 -118.5t84 -85t123 -33q139 0 204.5 93.5t65.5 277.5v82q0 45 -1 96t-1 104v101q-2 115 -2 235l252 5v-609q0 -139 -27.5 -249.5t-91 -187.5t-168 -118t-255.5 -41q-258 0 -377 154.5t-119 447.5zM369 1341l2 213h194l-12 -211 zM678 1346l2 213h194l-12 -211z" />
<glyph unicode="&#xdd;" horiz-adv-x="1032" d="M-49 1176h282l195 -445l47 -125l51 125l205 445h266l-403 -748l-23 -428h-235l10 428zM266 1456l332 230l102 -160l-335 -201z" />
<glyph unicode="&#xde;" horiz-adv-x="1081" d="M92 0l12 805l11 371h231l-10 -195h235q94 0 172 -25.5t135.5 -73.5t89 -118t31.5 -160q0 -86 -29.5 -158.5t-85 -124t-135 -80t-180.5 -28.5h-250l-2 -213h-225zM322 406h247q102 0 146.5 53t44.5 145q0 88 -52.5 139.5t-138.5 51.5h-243z" />
<glyph unicode="&#xdf;" horiz-adv-x="1269" d="M55 784q53 8 105.5 12.5t99.5 8.5v115q0 57 22.5 112t65.5 98.5t104.5 69t137.5 25.5t139.5 -27t108.5 -67.5t70.5 -93t25.5 -101.5t-20.5 -88t-44 -72t-44 -61.5t-20.5 -57.5q0 -27 17.5 -46t60.5 -46q78 -49 134 -89t90 -81t48 -86t10 -104q-10 -123 -92 -178.5 t-211 -55.5q-66 0 -122 9.5t-99 19.5q-51 12 -94 31q14 53 26 96q10 37 18.5 67.5t10.5 30.5q100 -35 164.5 -44t101.5 -3t51.5 23.5t18.5 36.5q6 37 -29 77.5t-118 83.5q-117 59 -159 126t-32 145q6 45 22.5 75.5t35 57t33 51.5t14.5 57q0 41 -28 77t-91 36 q-45 0 -81 -30.5t-38 -86.5l-16 -907h-213l16 625l-195 -25z" />
<glyph unicode="&#xe0;" horiz-adv-x="925" d="M47 236q0 68 22.5 114.5t63.5 77.5t96.5 44t120.5 13q51 0 91 -3t69 -7q2 18 2 36v26q0 63 -36 83.5t-95 20.5q-37 0 -84 -6t-88 -12q-49 -8 -100 -17l-3 203l82 10q37 4 84 7t95 3q123 0 195.5 -23.5t109.5 -66.5t44 -105q4 -34 4 -72q0 -33 -3 -68q-4 -37 -8 -79 t-9.5 -82t-8.5 -73t-3 -51q0 -10 5 -20.5t20 -12.5q10 -2 26.5 4t30.5 17q16 8 35 22l100 -137q-20 -35 -53 -59q-29 -23 -75 -39q-37 -13 -87 -13h-26q-68 4 -109 42t-59 100q-35 -53 -92.5 -97.5t-135.5 -44.5q-53 0 -94 21.5t-69.5 58.5t-43 85.5t-14.5 99.5z M276.5 179.5q26.5 -25.5 61.5 -25.5q47 0 85 32.5t64 67.5q4 16 8 50l5 56q-10 2 -29.5 3.5t-60.5 1.5q-72 0 -117 -29q-43 -27 -43 -83q0 -48 26.5 -73.5zM198 1133l99 157l336 -227l-99 -131z" />
<glyph unicode="&#xe1;" horiz-adv-x="925" d="M47 236q0 68 22.5 114.5t63.5 77.5t96.5 44t120.5 13q51 0 91 -3t69 -7q2 18 2 36v26q0 63 -36 83.5t-95 20.5q-37 0 -84 -6t-88 -12q-49 -8 -100 -17l-3 203l82 10q37 4 84 7t95 3q123 0 195.5 -23.5t109.5 -66.5t44 -105q4 -34 4 -72q0 -33 -3 -68q-4 -37 -8 -79 t-9.5 -82t-8.5 -73t-3 -51q0 -10 5 -20.5t20 -12.5q10 -2 26.5 4t30.5 17q16 8 35 22l100 -137q-20 -35 -53 -59q-29 -23 -75 -39q-37 -13 -87 -13h-26q-68 4 -109 42t-59 100q-35 -53 -92.5 -97.5t-135.5 -44.5q-53 0 -94 21.5t-69.5 58.5t-43 85.5t-14.5 99.5z M276.5 179.5q26.5 -25.5 61.5 -25.5q47 0 85 32.5t64 67.5q4 16 8 50l5 56q-10 2 -29.5 3.5t-60.5 1.5q-72 0 -117 -29q-43 -27 -43 -83q0 -48 26.5 -73.5zM198 1063l332 229l103 -159l-336 -201z" />
<glyph unicode="&#xe2;" horiz-adv-x="925" d="M47 236q0 68 22.5 114.5t63.5 77.5t96.5 44t120.5 13q51 0 91 -3t69 -7q2 18 2 36v26q0 63 -36 83.5t-95 20.5q-37 0 -84 -6t-88 -12q-49 -8 -100 -17l-3 203l82 10q37 4 84 7t95 3q123 0 195.5 -23.5t109.5 -66.5t44 -105q4 -34 4 -72q0 -33 -3 -68q-4 -37 -8 -79 t-9.5 -82t-8.5 -73t-3 -51q0 -10 5 -20.5t20 -12.5q10 -2 26.5 4t30.5 17q16 8 35 22l100 -137q-20 -35 -53 -59q-29 -23 -75 -39q-37 -13 -87 -13h-26q-68 4 -109 42t-59 100q-35 -53 -92.5 -97.5t-135.5 -44.5q-53 0 -94 21.5t-69.5 58.5t-43 85.5t-14.5 99.5z M276.5 179.5q26.5 -25.5 61.5 -25.5q47 0 85 32.5t64 67.5q4 16 8 50l5 56q-10 2 -29.5 3.5t-60.5 1.5q-72 0 -117 -29q-43 -27 -43 -83q0 -48 26.5 -73.5zM110 1112l320 215l293 -231l-127 -135l-176 161l-193 -149z" />
<glyph unicode="&#xe3;" horiz-adv-x="925" d="M47 236q0 68 22.5 114.5t63.5 77.5t96.5 44t120.5 13q51 0 91 -3t69 -7q2 18 2 36v26q0 63 -36 83.5t-95 20.5q-37 0 -84 -6t-88 -12q-49 -8 -100 -17l-3 203l82 10q37 4 84 7t95 3q123 0 195.5 -23.5t109.5 -66.5t44 -105q4 -34 4 -72q0 -33 -3 -68q-4 -37 -8 -79 t-9.5 -82t-8.5 -73t-3 -51q0 -10 5 -20.5t20 -12.5q10 -2 26.5 4t30.5 17q16 8 35 22l100 -137q-20 -35 -53 -59q-29 -23 -75 -39q-37 -13 -87 -13h-26q-68 4 -109 42t-59 100q-35 -53 -92.5 -97.5t-135.5 -44.5q-53 0 -94 21.5t-69.5 58.5t-43 85.5t-14.5 99.5z M276.5 179.5q26.5 -25.5 61.5 -25.5q47 0 85 32.5t64 67.5q4 16 8 50l5 56q-10 2 -29.5 3.5t-60.5 1.5q-72 0 -117 -29q-43 -27 -43 -83q0 -48 26.5 -73.5zM80 1128q31 35 68 62q31 23 71.5 43t88.5 20q43 0 73.5 -12t56 -26.5t50 -26.5t55.5 -12q29 0 50.5 14t37.5 31 q18 20 31 45l139 -117q-27 -47 -63 -84q-31 -31 -76 -56.5t-103 -25.5q-41 0 -72.5 15.5t-61 33t-61.5 29.5t-71 4q-23 -4 -39 -15.5t-28 -23.5q-14 -14 -27 -33q-35 37 -61 68q-23 27 -41.5 47t-16.5 20z" />
<glyph unicode="&#xe4;" horiz-adv-x="925" d="M47 236q0 68 22.5 114.5t63.5 77.5t96.5 44t120.5 13q51 0 91 -3t69 -7q2 18 2 36v26q0 63 -36 83.5t-95 20.5q-37 0 -84 -6t-88 -12q-49 -8 -100 -17l-3 203l82 10q37 4 84 7t95 3q123 0 195.5 -23.5t109.5 -66.5t44 -105q4 -34 4 -72q0 -33 -3 -68q-4 -37 -8 -79 t-9.5 -82t-8.5 -73t-3 -51q0 -10 5 -20.5t20 -12.5q10 -2 26.5 4t30.5 17q16 8 35 22l100 -137q-20 -35 -53 -59q-29 -23 -75 -39q-37 -13 -87 -13h-26q-68 4 -109 42t-59 100q-35 -53 -92.5 -97.5t-135.5 -44.5q-53 0 -94 21.5t-69.5 58.5t-43 85.5t-14.5 99.5z M276.5 179.5q26.5 -25.5 61.5 -25.5q47 0 85 32.5t64 67.5q4 16 8 50l5 56q-10 2 -29.5 3.5t-60.5 1.5q-72 0 -117 -29q-43 -27 -43 -83q0 -48 26.5 -73.5zM170 977l3 213h194l-12 -211zM480 981l2 213h194l-12 -211z" />
<glyph unicode="&#xe5;" horiz-adv-x="925" d="M47 236q0 68 22.5 114.5t63.5 77.5t96.5 44t120.5 13q51 0 91 -3t69 -7q2 18 2 36v26q0 63 -36 83.5t-95 20.5q-37 0 -84 -6t-88 -12q-49 -8 -100 -17l-3 203l82 10q37 4 84 7t95 3q123 0 195.5 -23.5t109.5 -66.5t44 -105q4 -34 4 -72q0 -33 -3 -68q-4 -37 -8 -79 t-9.5 -82t-8.5 -73t-3 -51q0 -10 5 -20.5t20 -12.5q10 -2 26.5 4t30.5 17q16 8 35 22l100 -137q-20 -35 -53 -59q-29 -23 -75 -39q-37 -13 -87 -13h-26q-68 4 -109 42t-59 100q-35 -53 -92.5 -97.5t-135.5 -44.5q-53 0 -94 21.5t-69.5 58.5t-43 85.5t-14.5 99.5z M276.5 179.5q26.5 -25.5 61.5 -25.5q47 0 85 32.5t64 67.5q4 16 8 50l5 56q-10 2 -29.5 3.5t-60.5 1.5q-72 0 -117 -29q-43 -27 -43 -83q0 -48 26.5 -73.5zM240 1098q0 37 13 68.5t36.5 55t55.5 38t67 14.5t66.5 -14.5t55 -38t37 -55t13.5 -68.5t-13.5 -69t-37 -55.5 t-55.5 -37.5t-66 -14q-35 0 -67 14t-55.5 37.5t-36.5 55.5t-13 69zM344 1096q-2 -29 17.5 -47.5t45.5 -16.5q27 2 43.5 18.5t16.5 45.5q0 27 -16.5 43t-45.5 16t-44 -16t-17 -43z" />
<glyph unicode="&#xe6;" horiz-adv-x="1294" d="M47 236q0 68 22.5 116.5t63.5 79.5t96.5 46.5t120.5 15.5q45 0 88 -4.5t72 -8.5q2 18 2 33v23q0 63 -36 83.5t-95 20.5q-37 0 -84 -6t-88 -12q-49 -8 -100 -17l-3 203l82 10q37 4 84 7t95 3q113 0 181 -19t107 -54q35 35 82 54t107 19q147 0 216.5 -76.5t69.5 -199.5 q0 -39 -2 -74t-6 -61q-4 -33 -10 -60l-432 -12q8 -100 62.5 -136t125.5 -36q35 0 75 10.5t75 22.5q39 14 78 35l82 -193q-35 -23 -86 -39q-43 -16 -106.5 -27.5t-147.5 -11.5t-146.5 33t-101.5 107q-41 -59 -115 -99.5t-192 -40.5q-53 0 -96.5 21.5t-74 58.5t-48 85.5 t-17.5 99.5zM240 250q0 -43 29.5 -68.5t64.5 -25.5q47 0 87 31.5t66 66.5q2 8 4.5 22.5t3.5 31t3 32.5t2 27q-10 2 -38 4t-52 2q-72 0 -122 -32t-48 -91zM698 485l242 21q0 4 2 12q0 6 1 13.5t1 17.5q0 20 -5 41.5t-16.5 40t-30 30t-42.5 11.5q-55 0 -101.5 -44.5 t-50.5 -142.5z" />
<glyph unicode="&#xe7;" horiz-adv-x="835" d="M59 395q2 131 40 215t90.5 133.5t111.5 68.5t105 19q57 0 111 -10t98 -23.5t75 -25.5t41 -14l-51 -176q-35 14 -72 22q-31 8 -67.5 14.5t-69.5 6.5q-82 -4 -137 -59.5t-58 -190.5q0 -57 16.5 -95t42 -61.5t58.5 -33t68 -9.5t71.5 6t69.5 15q37 8 74 22l57 -180 q-33 -14 -71 -27q-35 -10 -84.5 -21t-108.5 -16q25 -25 37 -41q16 -33 20 -80t-37 -85q-33 -29 -72.5 -40.5t-76.5 -15.5q-43 -4 -88 2l6 166q18 -6 37 -8q16 -2 33.5 0t31.5 12q23 16 28 42t3 46q-57 2 -117.5 21.5t-108.5 67t-79 127t-27 206.5z" />
<glyph unicode="&#xe8;" horiz-adv-x="890" d="M59 408q4 111 34 190.5t80 130.5t117.5 75.5t151.5 24.5q147 0 221 -81.5t78 -212.5q0 -39 -4 -72t-10 -55q-8 -27 -14 -50l-434 -12q0 -49 15 -83t40.5 -54.5t58.5 -29.5t70 -9q35 0 75 10t74 23q39 14 78 35l84 -170q-43 -27 -98 -50q-47 -18 -114.5 -32.5 t-153.5 -14.5q-70 0 -135.5 22.5t-114.5 75t-77 135.5q-23 68 -23 161q0 21 1 43zM291 485l235 21q0 2 2 6q0 4 1 8t1 8q0 20 -4 45t-15 46.5t-29.5 36t-43.5 14.5q-55 0 -96 -43.5t-51 -141.5zM221 1133l99 157l336 -227l-99 -131z" />
<glyph unicode="&#xe9;" horiz-adv-x="890" d="M59 408q4 111 34 190.5t80 130.5t117.5 75.5t151.5 24.5q147 0 221 -81.5t78 -212.5q0 -39 -4 -72t-10 -55q-8 -27 -14 -50l-434 -12q0 -49 15 -83t40.5 -54.5t58.5 -29.5t70 -9q35 0 75 10t74 23q39 14 78 35l84 -170q-43 -27 -98 -50q-47 -18 -114.5 -32.5 t-153.5 -14.5q-70 0 -135.5 22.5t-114.5 75t-77 135.5q-23 68 -23 161q0 21 1 43zM291 485l235 21q0 2 2 6q0 4 1 8t1 8q0 20 -4 45t-15 46.5t-29.5 36t-43.5 14.5q-55 0 -96 -43.5t-51 -141.5zM211 1063l332 229l103 -159l-336 -201z" />
<glyph unicode="&#xea;" horiz-adv-x="890" d="M59 408q4 111 34 190.5t80 130.5t117.5 75.5t151.5 24.5q147 0 221 -81.5t78 -212.5q0 -39 -4 -72t-10 -55q-8 -27 -14 -50l-434 -12q0 -49 15 -83t40.5 -54.5t58.5 -29.5t70 -9q35 0 75 10t74 23q39 14 78 35l84 -170q-43 -27 -98 -50q-47 -18 -114.5 -32.5 t-153.5 -14.5q-70 0 -135.5 22.5t-114.5 75t-77 135.5q-23 68 -23 161q0 21 1 43zM291 485l235 21q0 2 2 6q0 4 1 8t1 8q0 20 -4 45t-15 46.5t-29.5 36t-43.5 14.5q-55 0 -96 -43.5t-51 -141.5zM135 1112l320 215l293 -231l-127 -135l-176 161l-193 -149z" />
<glyph unicode="&#xeb;" horiz-adv-x="890" d="M59 408q4 111 34 190.5t80 130.5t117.5 75.5t151.5 24.5q147 0 221 -81.5t78 -212.5q0 -39 -4 -72t-10 -55q-8 -27 -14 -50l-434 -12q0 -49 15 -83t40.5 -54.5t58.5 -29.5t70 -9q35 0 75 10t74 23q39 14 78 35l84 -170q-43 -27 -98 -50q-47 -18 -114.5 -32.5 t-153.5 -14.5q-70 0 -135.5 22.5t-114.5 75t-77 135.5q-23 68 -23 161q0 21 1 43zM291 485l235 21q0 2 2 6q0 4 1 8t1 8q0 20 -4 45t-15 46.5t-29.5 36t-43.5 14.5q-55 0 -96 -43.5t-51 -141.5zM215 977l3 213h194l-12 -211zM525 981l2 213h194l-12 -211z" />
<glyph unicode="&#xec;" horiz-adv-x="518" d="M45 1133l99 157l336 -227l-99 -131zM-59 791q84 10 158.5 15t131.5 7q68 2 123 -2l-24 -811h-236l45 627l-194 -21z" />
<glyph unicode="&#xed;" horiz-adv-x="518" d="M45 1063l332 229l103 -159l-336 -201zM-59 791q84 10 158.5 15t131.5 7q68 2 123 -2l-24 -811h-236l45 627l-194 -21z" />
<glyph unicode="&#xee;" horiz-adv-x="518" d="M-52 1112l320 215l293 -231l-127 -135l-176 161l-193 -149zM-59 791q84 10 158.5 15t131.5 7q68 2 123 -2l-24 -811h-236l45 627l-194 -21z" />
<glyph unicode="&#xef;" horiz-adv-x="518" d="M10 977l3 213h194l-12 -211zM320 981l2 213h194l-12 -211zM-59 791q84 10 158.5 15t131.5 7q68 2 123 -2l-24 -811h-236l45 627l-194 -21z" />
<glyph unicode="&#xf0;" horiz-adv-x="1009" d="M82 383q0 72 22.5 138.5t64.5 119.5t104.5 87t142.5 40q63 4 101 -5t40 -9q-55 61 -113 106l-192 -98l-68 121l127 65q-47 29 -81.5 43.5t-45.5 20.5l150 192q104 -66 196 -141l201 104l72 -125l-162 -81q63 -68 113.5 -143t82 -157.5t41 -172t-9.5 -185.5 q-29 -152 -130 -242t-257 -90q-205 0 -302 114t-97 298zM317 379q0 -94 39 -151.5t117 -57.5q39 0 69.5 17.5t52 44t34 59.5t18.5 65q4 25 5 55.5t-1 60.5t-7 54.5t-11 38.5q-18 8 -41 17q-18 6 -42 12t-52 6q-49 0 -84 -20.5t-56.5 -53t-31 -71.5t-9.5 -76z" />
<glyph unicode="&#xf1;" horiz-adv-x="1034" d="M92 805l215 6q4 -18 12.5 -58t18.5 -87q23 29 50.5 58.5t62 53t77.5 37.5t99 14q76 0 122 -33.5t72.5 -82.5t35.5 -106.5t9 -104.5v-49q0 -31 -1 -70t-1 -82v-86q-2 -100 -2 -215h-244q4 96 11 182q4 74 8 146.5t8 113.5q4 78 -23.5 126t-84.5 38q-63 -10 -111.5 -62 t-85.5 -120q-2 -102 -1 -181t1 -132q0 -63 2 -111h-242q4 111 11 217q4 92 7 188.5t3 165.5q0 4 -5 41t-10 80q-8 52 -14 113zM117 1128q31 35 67 62q31 23 72 43t88 20q43 0 74 -12t56.5 -26.5t50 -26.5t55.5 -12q29 0 50 14t38 31q18 20 30 45l140 -117q-27 -47 -64 -84 q-31 -31 -76 -56.5t-102 -25.5q-41 0 -72.5 15.5t-61.5 33t-61.5 29.5t-70.5 4q-23 -4 -39.5 -15.5t-28.5 -23.5q-14 -14 -26 -33q-35 37 -62 68q-23 27 -41 47t-16 20z" />
<glyph unicode="&#xf2;" horiz-adv-x="937" d="M59 395q4 205 107.5 319.5t284.5 114.5q100 0 168.5 -33.5t111.5 -91t61.5 -133t18.5 -157.5q-2 -98 -28.5 -179t-76 -139.5t-121 -91.5t-161.5 -33q-182 0 -275.5 109.5t-89.5 314.5zM252 1133l98 157l336 -227l-98 -131zM279 395q-2 -106 35.5 -170.5t113.5 -64.5 q61 0 104 68.5t48 185.5q2 104 -43 162.5t-107 58.5q-55 0 -101 -58.5t-50 -181.5z" />
<glyph unicode="&#xf3;" horiz-adv-x="937" d="M59 395q4 205 107.5 319.5t284.5 114.5q100 0 168.5 -33.5t111.5 -91t61.5 -133t18.5 -157.5q-2 -98 -28.5 -179t-76 -139.5t-121 -91.5t-161.5 -33q-182 0 -275.5 109.5t-89.5 314.5zM211 1063l332 229l102 -159l-336 -201zM279 395q-2 -106 35.5 -170.5t113.5 -64.5 q61 0 104 68.5t48 185.5q2 104 -43 162.5t-107 58.5q-55 0 -101 -58.5t-50 -181.5z" />
<glyph unicode="&#xf4;" horiz-adv-x="937" d="M59 395q4 205 107.5 319.5t284.5 114.5q100 0 168.5 -33.5t111.5 -91t61.5 -133t18.5 -157.5q-2 -98 -28.5 -179t-76 -139.5t-121 -91.5t-161.5 -33q-182 0 -276 110q-89 105 -89 297v17zM279 395q0 -5 -1 -11q0 -99 36 -160q38 -65 114 -64q61 0 104 68q47 75 48 195 q0 98 -43 154q-45 58 -107 58q-55 0 -101 -58.5t-50 -181.5zM163 1112l320 215l293 -231l-127 -135l-176 161l-193 -149z" />
<glyph unicode="&#xf5;" horiz-adv-x="937" d="M59 395q4 205 107.5 319.5t284.5 114.5q100 0 168.5 -33.5t111.5 -91t61.5 -133t18.5 -157.5q-2 -98 -28.5 -179t-76 -139.5t-121 -91.5t-161.5 -33q-182 0 -275.5 109.5t-89.5 314.5zM68 1128q31 35 67 62q31 23 72 43t88 20q43 0 73.5 -12t56.5 -26.5t50.5 -26.5 t54.5 -12q29 0 50.5 14t37.5 31q18 20 31 45l139 -117q-27 -47 -63 -84q-31 -31 -76 -56.5t-102 -25.5q-41 0 -73 15.5t-61.5 33t-61.5 29.5t-70 4q-23 -4 -39.5 -15.5t-28.5 -23.5q-14 -14 -27 -33q-35 37 -61 68q-23 27 -41 47t-16 20zM279 395q-2 -106 35.5 -170.5 t113.5 -64.5q61 0 104 68.5t48 185.5q2 104 -43 162.5t-107 58.5q-55 0 -101 -58.5t-50 -181.5z" />
<glyph unicode="&#xf6;" horiz-adv-x="937" d="M59 395q4 205 107.5 319.5t284.5 114.5q100 0 168.5 -33.5t111.5 -91t61.5 -133t18.5 -157.5q-2 -98 -28.5 -179t-76 -139.5t-121 -91.5t-161.5 -33q-182 0 -276 110q-89 105 -89 297v17zM279 395q0 -5 -1 -11q0 -99 36 -160q38 -65 114 -64q61 0 104 68q47 75 48 195 q0 98 -43 154q-45 58 -107 58q-55 0 -101 -58.5t-50 -181.5zM215 977l3 213h194l-12 -211zM525 981l2 213h194l-12 -211z" />
<glyph unicode="&#xf7;" horiz-adv-x="819" d="M256 223l2 213h230l-13 -211zM256 815l2 213h230l-13 -211zM8 518l2 199h742l-13 -197z" />
<glyph unicode="&#xf8;" horiz-adv-x="909" d="M57 395q0 205 95.5 318.5t273.5 115.5l25 117l143 -24l-35 -117q59 -23 101 -61.5t70 -90t41 -113t13 -126.5q0 -88 -22.5 -168t-69.5 -139.5t-122.5 -96.5t-180.5 -39l-18 -106l-160 20l37 119q-96 45 -143.5 144.5t-47.5 246.5zM266 381q0 -41 8.5 -95.5t22.5 -90.5 l92 446q-45 -16 -84 -79.5t-39 -180.5zM428 141q31 6 53.5 32t38 63.5t23.5 86t8 99.5q2 70 -11.5 114t-29.5 70z" />
<glyph unicode="&#xf9;" horiz-adv-x="987" d="M76 309v49v70q0 39 1 82t1 86q2 98 2 215h244q-4 -98 -11 -182q-4 -74 -9 -146.5t-7 -113.5q-1 -12 -1 -24q0 -73 22 -126q26 -61 88 -61q20 0 41.5 14t43 37.5t43 53.5t39.5 61q2 117 5.5 208t5.5 152q2 72 4 127h246q-8 -111 -17 -215q-6 -90 -11 -186.5t-5 -163.5 q0 -4 1 -43t5 -84l8 -119h-211q-6 16 -10 58t-8 89q-18 -29 -43 -60.5t-57.5 -57t-73.5 -42t-93 -16.5q-74 0 -120.5 40t-74.5 94.5t-38 111.5t-10 92zM254 1133l99 157l336 -227l-99 -131z" />
<glyph unicode="&#xfa;" horiz-adv-x="987" d="M76 309v49v70q0 39 1 82t1 86q2 98 2 215h244q-4 -98 -11 -182q-4 -74 -9 -146.5t-7 -113.5q-4 -88 21.5 -149.5t87.5 -61.5q20 0 41.5 14t43 37.5t43 53.5t39.5 61q2 117 5.5 208t5.5 152q2 72 4 127h246q-8 -111 -17 -215q-6 -90 -11 -186.5t-5 -163.5q0 -4 1 -43 t5 -84l8 -119h-211q-6 16 -10 58t-8 89q-18 -29 -43 -60.5t-57.5 -57t-73.5 -42t-93 -16.5q-74 0 -120.5 40t-74.5 94.5t-38 111.5t-10 92zM217 1063l332 229l102 -159l-336 -201z" />
<glyph unicode="&#xfb;" horiz-adv-x="987" d="M76 309v49v70q0 39 1 82t1 86q2 98 2 215h244q-4 -98 -11 -182q-4 -74 -9 -146.5t-7 -113.5q-1 -12 -1 -24q0 -73 22 -126q26 -61 88 -61q20 0 41.5 14t43 37.5t43 53.5t39.5 61q2 117 5.5 208t5.5 152q2 72 4 127h246q-8 -111 -17 -215q-6 -90 -11 -186.5t-5 -163.5 q0 -4 1 -43t5 -84l8 -119h-211q-6 16 -10 58t-8 89q-18 -29 -43 -60.5t-57.5 -57t-73.5 -42t-93 -16.5q-74 0 -120.5 40t-74.5 94.5t-38 111.5t-10 92zM170 1112l320 215l293 -231l-127 -135l-176 161l-193 -149z" />
<glyph unicode="&#xfc;" horiz-adv-x="987" d="M76 309v49v70q0 39 1 82t1 86q2 98 2 215h244q-4 -98 -11 -182q-4 -74 -9 -146.5t-7 -113.5q-1 -12 -1 -24q0 -73 22 -126q26 -61 88 -61q20 0 41.5 14t43 37.5t43 53.5t39.5 61q2 117 5.5 208t5.5 152q2 72 4 127h246q-8 -111 -17 -215q-6 -90 -11 -186.5t-5 -163.5 q0 -4 1 -43t5 -84l8 -119h-211q-6 16 -10 58t-8 89q-18 -29 -43 -60.5t-57.5 -57t-73.5 -42t-93 -16.5q-74 0 -120.5 40t-74.5 94.5t-38 111.5t-10 92zM223 977l3 213h194l-12 -211zM533 981l2 213h194l-12 -211z" />
<glyph unicode="&#xfd;" horiz-adv-x="976" d="M10 811h252l184 -653l211 653h258l-118 -307q-25 -66 -53.5 -138.5t-57.5 -146.5t-57.5 -145.5t-53.5 -134.5q-39 -98 -82.5 -163t-90 -104t-95.5 -54t-98 -15q-41 0 -73 6t-54 14q-27 8 -47 21l63 188q20 -12 43 -20q20 -6 45 -9.5t54 7.5q27 8 47 27.5t35.5 43t26.5 48 t22 42.5l14 29h-92zM256 1063l332 229l102 -159l-336 -201z" />
<glyph unicode="&#xfe;" horiz-adv-x="991" d="M92 -397l39 1595l205 6l-12 -493q45 47 104 82.5t139 35.5t138.5 -39.5t96.5 -104t53 -143.5t9 -157q-8 -102 -39.5 -182t-83 -133.5t-120 -79t-148.5 -19.5q-51 4 -93 16.5t-69 35.5l-4 -416zM313 201q16 -23 45 -43.5t80 -20.5q72 0 128.5 62.5t68.5 175.5q6 47 0 90 t-22.5 76.5t-46 55t-70.5 26.5q-33 2 -60.5 -8.5t-50.5 -27t-39 -33.5t-24 -30z" />
<glyph unicode="&#xff;" horiz-adv-x="976" d="M10 811h252l184 -653l211 653h258l-118 -307q-25 -66 -53.5 -138.5t-57.5 -146.5t-57.5 -145.5t-53.5 -134.5q-39 -98 -82.5 -163t-90 -104t-95.5 -54t-98 -15q-41 0 -73 6t-54 14q-27 8 -47 21l63 188q20 -12 43 -20q20 -6 45 -9.5t54 7.5q27 8 47 27.5t35.5 43t26.5 48 t22 42.5l14 29h-92zM203 977l2 213h194l-12 -211zM598 981l2 213h195l-13 -211z" />
<glyph unicode="&#x131;" horiz-adv-x="518" d="M-59 791q84 10 158.5 15t131.5 7q68 2 123 -2l-24 -811h-236l45 627l-194 -21z" />
<glyph unicode="&#x152;" horiz-adv-x="1562" d="M31 588q0 156 44 271.5t114.5 192t157.5 114.5t173 38q53 0 96 -7t78 -21h756l-4 -222l-559 4l-6 -251l399 4l-4 -215h-404l-4 -277l549 4l-6 -223h-717q-35 -14 -80 -21.5t-108 -7.5q-100 0 -186.5 30t-151 100.5t-101 189.5t-36.5 297zM260 586q0 -209 66.5 -310.5 t187.5 -101.5q70 0 125 43l10 744q-27 18 -56.5 28t-66.5 10q-49 0 -96 -25.5t-85 -76.5t-61.5 -129t-23.5 -182z" />
<glyph unicode="&#x153;" horiz-adv-x="1372" d="M57 395q0 205 96.5 319.5t276.5 114.5q90 0 148.5 -27.5t95.5 -74.5q92 102 248 102q147 0 216.5 -76.5t69.5 -199.5q0 -39 -2 -74t-6 -61q-4 -33 -10 -60l-432 -12q8 -100 62 -136t126 -36q35 0 75 10.5t75 22.5q39 14 78 35l81 -193q-37 -23 -90 -39 q-45 -16 -109.5 -27.5t-150.5 -11.5q-145 0 -239 113q-41 -53 -101.5 -83t-146.5 -30q-180 0 -270.5 109.5t-90.5 314.5zM279 395q0 -106 37.5 -169.5t111.5 -63.5q123 18 123 254q0 104 -38 159.5t-99 55.5q-55 0 -95 -56.5t-40 -179.5zM760 485l241 21q0 4 3 12 q0 6 1 13.5t1 17.5q0 20 -5.5 41.5t-16.5 40t-29.5 30t-43.5 11.5q-55 0 -101 -44.5t-50 -142.5z" />
<glyph unicode="&#x178;" horiz-adv-x="1032" d="M-49 1176h282l195 -445l47 -125l51 125l205 445h266l-403 -748l-23 -428h-235l10 428zM250 1335l2 213h194l-12 -211zM559 1339l2 213h195l-13 -211z" />
<glyph unicode="&#x2c6;" horiz-adv-x="1056" d="M233 1112l320 215l293 -231l-127 -135l-176 161l-193 -149z" />
<glyph unicode="&#x2da;" horiz-adv-x="569" d="M109 1096q0 37 13 68.5t36.5 55t55.5 38t67 14.5t66.5 -14.5t55 -38t37 -55t13.5 -68.5t-13.5 -69t-37 -55.5t-55.5 -37.5t-66 -14q-35 0 -67 14t-55.5 37.5t-36.5 55.5t-13 69zM213 1094q-2 -29 17.5 -47.5t45.5 -16.5q27 2 43.5 18.5t16.5 45.5q0 27 -16.5 43t-45.5 16 t-44 -16t-17 -43z" />
<glyph unicode="&#x2dc;" horiz-adv-x="954" d="M96 1128q31 35 68 62q31 23 71.5 43t88.5 20q43 0 73.5 -12t56 -26.5t50 -26.5t55.5 -12q29 0 50.5 14t37.5 31q18 20 31 45l139 -117q-27 -47 -63 -84q-31 -31 -76 -56.5t-103 -25.5q-41 0 -72.5 15.5t-61 33t-61.5 29.5t-71 4q-23 -4 -39 -15.5t-28 -23.5 q-14 -14 -27 -33q-35 37 -61 68q-23 27 -41.5 47t-16.5 20z" />
<glyph unicode="&#x2000;" horiz-adv-x="856" />
<glyph unicode="&#x2001;" horiz-adv-x="1712" />
<glyph unicode="&#x2002;" horiz-adv-x="856" />
<glyph unicode="&#x2003;" horiz-adv-x="1712" />
<glyph unicode="&#x2004;" horiz-adv-x="569" />
<glyph unicode="&#x2005;" horiz-adv-x="428" />
<glyph unicode="&#x2006;" horiz-adv-x="284" />
<glyph unicode="&#x2007;" horiz-adv-x="284" />
<glyph unicode="&#x2008;" horiz-adv-x="212" />
<glyph unicode="&#x2009;" horiz-adv-x="342" />
<glyph unicode="&#x200a;" horiz-adv-x="94" />
<glyph unicode="&#x2010;" horiz-adv-x="743" d="M41 393l2 211l571 4l-12 -213z" />
<glyph unicode="&#x2011;" horiz-adv-x="743" d="M41 393l2 211l571 4l-12 -213z" />
<glyph unicode="&#x2012;" horiz-adv-x="743" d="M41 393l2 211l571 4l-12 -213z" />
<glyph unicode="&#x2013;" horiz-adv-x="1146" d="M41 393l2 211l977 4l-12 -213z" />
<glyph unicode="&#x2014;" horiz-adv-x="1146" d="M41 393l2 211l977 4l-12 -213z" />
<glyph unicode="&#x2018;" horiz-adv-x="585" d="M113.5 1049.5q-13.5 66.5 3.5 150.5q12 72 48 128t75 93q45 43 98 74l98 -154q-25 -23 -45 -45q-18 -20 -34.5 -45.5t-20.5 -54.5q-10 -51 1 -92t28 -70q20 -35 47 -59l-199 -141q0 2 -21.5 27.5t-43 73.5t-35 114.5z" />
<glyph unicode="&#x2019;" horiz-adv-x="657" d="M139 985l45 45q16 20 34 46t22 54q8 51 -2.5 92.5t-26.5 69.5q-20 35 -47 60l198 141q0 -2 22 -28.5t43.5 -74t33.5 -115t-2 -149.5q-14 -74 -49 -129t-74 -92q-45 -43 -98 -74z" />
<glyph unicode="&#x201a;" horiz-adv-x="477" d="M78 -180l45 45q16 20 33.5 46t21.5 54q8 51 -2 92t-26 70q-20 35 -48 59l199 142q0 -2 21.5 -29t43 -74t34 -114.5t-2.5 -149.5q-14 -74 -49 -129t-74 -92q-45 -43 -98 -74z" />
<glyph unicode="&#x201c;" horiz-adv-x="741" d="M64.5 1049.5q-13.5 66.5 3.5 150.5q12 72 48 128t74 93q45 43 99 74l98 -154q-25 -23 -45 -45q-18 -20 -34.5 -45.5t-20.5 -54.5q-10 -51 1 -92t27 -70q20 -35 47 -59l-198 -141q0 2 -21.5 27.5t-43 73.5t-35 114.5zM396.5 1049.5q-13.5 66.5 2.5 150.5q12 72 48 128 t75 93q45 43 99 74l98 -154q-25 -23 -45 -45q-18 -20 -34.5 -45.5t-21.5 -54.5q-10 -51 1.5 -92t27.5 -70q20 -35 47 -59l-198 -141q0 2 -21.5 27.5t-43 73.5t-35 114.5z" />
<glyph unicode="&#x201d;" horiz-adv-x="915" d="M139 985l45 45q16 20 34 46t22 54q8 51 -2.5 92.5t-26.5 69.5q-20 35 -47 60l198 141q0 -2 22 -28.5t43.5 -74t33.5 -115t-2 -149.5q-14 -74 -49 -129t-74 -92q-45 -43 -98 -74zM471 985l45 45q16 20 33.5 46t21.5 54q8 51 -2 92.5t-26 69.5q-20 35 -47 60l198 141 q0 -2 21.5 -28.5t43 -74t34 -115t-1.5 -149.5q-14 -74 -49 -129t-74 -92q-45 -43 -99 -74z" />
<glyph unicode="&#x201e;" horiz-adv-x="923" d="M139 -180l45 45q16 20 34 46t22 54q8 51 -2.5 92t-26.5 70q-20 35 -47 59l198 142q0 -2 22 -29t43.5 -74t33.5 -114.5t-2 -149.5q-14 -74 -49 -129t-74 -92q-45 -43 -98 -74zM471 -180l45 45q16 20 33.5 46t21.5 54q8 51 -2 92t-26 70q-20 35 -47 59l198 142 q0 -2 21.5 -29t43 -74t34 -114.5t-1.5 -149.5q-14 -74 -49 -129t-74 -92q-45 -43 -99 -74z" />
<glyph unicode="&#x2022;" horiz-adv-x="425" d="M23 590q0 39 14 73.5t38.5 61.5t58.5 42t73 15t72.5 -15t59.5 -42t40 -61.5t14 -73.5q0 -78 -54 -133.5t-132 -55.5t-131 55.5t-53 133.5z" />
<glyph unicode="&#x2026;" horiz-adv-x="1142" d="M33 0l2 213h229l-12 -211zM426 0l2 213h229l-12 -211zM819 0l2 213h230l-13 -211z" />
<glyph unicode="&#x202f;" horiz-adv-x="342" />
<glyph unicode="&#x2039;" horiz-adv-x="751" d="M-6 401l371 412l141 -127l-287 -276l311 -304l-151 -126z" />
<glyph unicode="&#x203a;" horiz-adv-x="923" d="M74 106l313 304l-289 276l142 127l378 -412l-393 -421z" />
<glyph unicode="&#x2044;" horiz-adv-x="808" d="M25 498v159h723v-159h-723z" />
<glyph unicode="&#x205f;" horiz-adv-x="428" />
<glyph unicode="&#x2074;" horiz-adv-x="788" d="M82 852v145l256 508l176 -90l-252 -407l135 4v147h158l-6 -137l125 10l6 -180l-121 2l2 -147l-170 -2l6 151z" />
<glyph unicode="&#x20ac;" horiz-adv-x="1153" d="M39 352l2 197l102 -4q0 8 1 17t1 18v25q0 13 2 26l-106 -4l2 196l139 -2q31 100 83 170t118 113t140.5 63.5t150.5 22.5q82 0 150.5 -20.5t117.5 -45t77 -46t25 -23.5l-170 -181q-16 25 -40 48q-23 18 -56 35.5t-80 25.5q-80 10 -152.5 -31t-117.5 -133l248 4l45 -194 l-342 2q-2 -8 -2 -19v-20v-47l360 4l51 -195l-374 2q39 -92 112.5 -134t169.5 -32q51 6 90 29t66 47.5t40 44t15 19.5l166 -156q-43 -57 -106 -100q-53 -39 -134 -70t-192 -33q-186 -2 -312 91.5t-167 293.5z" />
<glyph unicode="&#x2122;" horiz-adv-x="1662" d="M45 1286v187h662l-7 -193l-213 12l-10 -577h-205l15 579zM752 715l141 758h178l64 -297l22 -101l29 101l76 297h172l112 -758h-192l-37 428l-39 -137l-72 -291h-129l-61 291l-23 137l-51 -428h-190z" />
<glyph unicode="&#x2212;" horiz-adv-x="897" d="M49 469l2 199h742l-13 -197z" />
<glyph unicode="&#xe000;" horiz-adv-x="810" d="M0 810h810v-810h-810v810z" />
<glyph unicode="&#xfb01;" horiz-adv-x="1124" d="M0 805l145 2q0 29 1 45t1 33q0 68 8.5 129t36 108t82 75t148.5 28q39 0 71.5 -4t57.5 -9q29 -6 51 -12l-35 -184q-37 8 -69 12q-29 4 -58.5 4t-46.5 -10q-35 -18 -35 -96q0 -8 1 -38t1 -83q49 0 89 2q35 2 63.5 3t34.5 1q88 4 167 3t138 -1q70 -2 129 -2l-25 -811h-235 l45 627l-410 2q-4 -104 -4 -215t-2 -203q-2 -109 -2 -211h-229q4 102 10 211q4 92 7 200.5t7 213.5l-141 -2zM768 977l2 213h195l-13 -211z" />
<glyph unicode="&#xfb02;" horiz-adv-x="1142" d="M0 805l145 2q0 29 1 45t1 33q0 68 8.5 129t36 108t82 75t148.5 28q39 0 71.5 -4t57.5 -9q29 -6 51 -12l-35 -184q-37 8 -69 12q-29 4 -58.5 4t-46.5 -10q-35 -18 -35 -96q0 -8 1 -38t1 -83l187 6l4 -176l-195 -6q-4 -104 -4 -215t-2 -203q-2 -109 -2 -211h-229 q4 102 10 211q4 92 7 200.5t7 213.5l-141 -2zM670 225q0 80 4 202t9 259t10 277.5t5 257.5l220 4q0 -41 -3.5 -120t-8.5 -176.5t-10 -201.5t-10 -197.5t-9 -162.5q-4 -72 -5 -103q0 -47 23 -65q25 -20 51 -23q18 -2 40 1t40 7q23 4 41 9l55 -170q-23 -16 -53 -27 q-27 -10 -65.5 -17.5t-85.5 -7.5q-113 0 -179.5 68.5t-68.5 185.5z" />
<glyph unicode="&#xfb03;" horiz-adv-x="1716" d="M0 805l145 2q0 29 1 45t1 33q0 68 8.5 129t36 108t82 75t148.5 28q39 0 71.5 -4t57.5 -9q29 -6 51 -12l-35 -184q-37 8 -69 12q-29 4 -58.5 4t-46.5 -10q-35 -18 -35 -96q0 -8 1 -38t1 -83h187l190 2q0 29 1 59.5t1 46.5q0 68 8.5 129.5t36 108.5t82 74.5t148.5 27.5 q39 0 71.5 -4t57.5 -8q29 -6 51 -12l-35 -185q-37 8 -69 13q-29 4 -59 4t-46 -10q-35 -18 -35 -97q0 -8 1 -52t1 -97h4l185 6q88 4 165.5 3t137.5 -1q68 -2 129 -2l-25 -811h-235l45 627l-410 2q-4 -104 -4 -215t-2 -203q-2 -109 -2 -211h-229q4 102 10 211q4 92 7 200.5 t7 213.5l-379 4q-4 -104 -4 -215t-2 -203q-2 -109 -2 -211h-229q4 102 10 211q4 92 7 200.5t7 213.5l-141 -2zM1360 977l184 2l12 211h-194z" />
<glyph unicode="&#xfb04;" horiz-adv-x="1734" d="M0 805l145 2q0 29 1 45t1 33q0 68 8.5 129t36 108t82 75t148.5 28q39 0 71.5 -4t57.5 -9q29 -6 51 -12l-35 -184q-37 8 -69 12q-29 4 -58.5 4t-46.5 -10q-35 -18 -35 -96q0 -8 1 -38t1 -83h187l190 2q0 29 1 59.5t1 46.5q0 68 8.5 129.5t36 108.5t82 74.5t148.5 27.5 q39 0 71.5 -4t57.5 -8q29 -6 51 -12l-35 -185q-37 8 -69 13q-29 4 -59 4t-46 -10q-35 -18 -35 -97q0 -8 1 -52t1 -97l189 6l4 -176l-197 -6q-4 -104 -4 -215t-2 -203q-2 -109 -2 -211h-229q4 102 10 211q4 92 7 200.5t7 213.5l-379 4q-4 -104 -4 -215t-2 -203 q-2 -109 -2 -211h-229q4 102 10 211q4 92 7 200.5t7 213.5l-141 -2zM1262 225q0 80 4 202t9 259t10 277.5t5 257.5l219 4q0 -41 -3 -120t-8 -176.5t-10 -201.5t-10 -197.5t-9.5 -163t-4.5 -94.5q-2 -53 22.5 -73.5t51.5 -22.5q18 -2 39.5 1t40.5 7q23 4 41 9l55 -170 q-23 -16 -53 -27q-27 -10 -66 -17.5t-86 -7.5q-113 0 -179 68.5t-68 185.5z" />
</font>
</defs>
</svg>
